<?xml version="1.0" standalone="no"?>
<!DOCTYPE svg PUBLIC "-//W3C//DTD SVG 20010904//EN"
 "http://www.w3.org/TR/2001/REC-SVG-20010904/DTD/svg10.dtd">
<svg version="1.0" xmlns="http://www.w3.org/2000/svg"
 width="1688.000000pt" height="1126.000000pt" viewBox="0 0 1688.000000 1126.000000"
 preserveAspectRatio="xMidYMid meet">
<metadata>
Created by potrace 1.13, written by Peter Selinger 2001-2015
</metadata>
<g transform="translate(0.000000,1126.000000) scale(0.100000,-0.100000)"
fill="#000000" stroke="none">
<path d="M8685 9480 c-11 -5 -41 -9 -68 -9 -26 -1 -55 -5 -65 -10 -9 -5 -36
-15 -59 -22 -106 -31 -23 -33 312 -8 77 6 149 12 160 13 11 1 -50 6 -135 11
-102 6 -140 11 -110 15 33 4 40 7 27 13 -23 9 -36 8 -62 -3z"/>
<path d="M12078 9375 c-54 -6 -100 -14 -103 -17 -3 -3 9 -16 27 -29 18 -13 39
-31 46 -41 7 -10 20 -18 28 -18 8 0 14 -3 14 -7 0 -14 49 -31 71 -26 16 5 13
-2 -15 -32 -33 -35 -48 -75 -28 -75 5 0 21 14 37 30 l29 30 140 0 c131 0 196
-4 431 -31 197 -22 236 -42 287 -147 17 -37 33 -76 35 -87 2 -11 8 -24 13 -29
6 -6 10 -22 10 -37 0 -15 5 -31 10 -34 6 -3 10 -17 10 -30 0 -13 5 -27 10 -30
6 -3 10 -19 10 -36 0 -16 5 -29 10 -29 6 0 10 -13 10 -29 0 -17 5 -33 10 -36
6 -3 10 -19 10 -36 0 -16 5 -29 10 -29 6 0 10 -13 10 -29 0 -17 5 -33 10 -36
6 -3 10 -19 10 -35 0 -16 5 -32 10 -35 6 -3 10 -17 10 -30 0 -13 5 -27 10 -30
6 -3 10 -19 10 -36 0 -16 5 -29 10 -29 6 0 10 -13 10 -29 0 -17 5 -33 10 -36
6 -3 10 -19 10 -36 0 -16 5 -29 10 -29 6 0 10 -13 10 -30 0 -16 5 -30 10 -30
6 0 10 14 10 30 0 17 -4 30 -10 30 -5 0 -10 14 -10 30 0 17 -4 30 -10 30 -5 0
-10 13 -10 29 0 17 -4 33 -10 36 -5 3 -10 19 -10 35 0 16 -4 32 -10 35 -5 3
-10 19 -10 36 0 16 -4 29 -10 29 -5 0 -10 13 -10 29 0 17 -4 33 -10 36 -5 3
-10 19 -10 36 0 16 -4 29 -10 29 -5 0 -10 13 -10 29 0 17 -4 33 -10 36 -5 3
-10 19 -10 36 0 16 -4 29 -10 29 -5 0 -10 13 -10 29 0 17 -4 33 -10 36 -5 3
-10 19 -10 35 0 16 -4 32 -10 35 -5 3 -10 17 -10 30 0 13 -4 27 -10 30 -5 3
-10 17 -10 30 0 13 -5 27 -11 30 -6 4 -8 13 -5 21 3 7 -1 29 -9 47 -9 22 -11
37 -4 44 5 5 7 17 4 25 -8 20 -79 68 -99 68 -8 0 -17 4 -20 9 -6 9 -35 15
-146 31 -75 10 -184 37 -157 39 15 1 16 4 7 21 -10 18 -40 36 -125 71 -115 49
-270 64 -457 44z"/>
<path d="M8440 9345 c-115 -12 -154 -20 -202 -40 -13 -5 -18 -2 -18 11 0 16
-2 16 -20 -4 -20 -21 -28 -48 -11 -38 5 3 28 -5 52 -17 24 -13 76 -29 114 -36
97 -18 107 -21 103 -35 -7 -28 -574 -909 -594 -922 -24 -17 -101 -32 -221 -44
-45 -4 -86 -11 -90 -13 -5 -3 -15 -2 -22 3 -11 6 -9 15 10 41 12 19 26 36 30
39 10 8 343 449 528 700 34 45 52 80 42 80 -4 0 -45 -39 -91 -87 -46 -49 -120
-126 -165 -173 -44 -47 -168 -179 -275 -295 -107 -115 -214 -223 -239 -239
-26 -15 -67 -48 -92 -73 -43 -41 -49 -44 -83 -38 -42 8 -66 39 -38 50 16 6 16
7 0 16 -24 13 -66 -6 -80 -36 -16 -35 0 -82 40 -113 23 -18 31 -20 26 -8 -9
23 14 46 45 46 15 0 37 9 49 20 26 25 54 26 76 2 16 -18 14 -21 -39 -55 -30
-21 -59 -37 -64 -37 -5 0 -11 -7 -15 -15 -3 -8 -11 -15 -19 -15 -7 0 -20 -13
-30 -29 -16 -27 -16 -30 0 -42 39 -33 271 -17 361 24 29 13 302 -2 782 -43
215 -19 369 -25 455 -20 115 8 64 16 -255 40 -382 29 -729 60 -775 68 -22 4
-39 12 -38 17 6 23 76 25 297 10 218 -14 720 -41 1266 -67 135 -6 322 -11 417
-12 164 -1 173 0 200 22 15 12 43 30 61 39 31 16 34 16 62 0 25 -15 36 -16 72
-7 24 7 61 16 83 22 22 6 51 14 65 18 42 14 150 39 245 55 252 46 396 60 603
60 100 0 182 2 182 6 0 10 -117 69 -124 62 -3 -3 -6 -1 -6 6 0 11 -34 28 -70
36 -8 2 -33 11 -55 20 -96 41 -147 49 -325 49 -163 1 -179 -1 -235 -23 -79
-32 -156 -85 -232 -160 -35 -33 -63 -57 -63 -53 0 18 146 166 199 201 75 50
165 91 201 91 16 0 31 4 34 9 7 11 131 23 228 22 140 -2 281 -52 403 -142 67
-49 125 -113 125 -139 0 -22 -10 -26 -27 -9 -14 14 -347 -4 -563 -32 -428 -54
-458 -61 -680 -161 -25 -11 -56 -25 -70 -32 -14 -6 -41 -23 -60 -38 -19 -16
-46 -28 -61 -28 -31 0 -64 -33 -56 -55 5 -11 22 -15 71 -15 68 0 90 12 56 30
-11 6 -20 15 -20 21 0 6 260 9 778 7 811 -3 1165 4 1293 27 149 27 228 73 245
142 13 49 -8 450 -35 678 -27 230 -44 299 -88 366 -23 35 -124 109 -188 138
-16 7 -38 17 -47 22 -10 5 -29 9 -42 9 -14 0 -28 5 -31 10 -3 6 -18 9 -33 9
-21 -1 -22 -2 -7 -6 11 -3 66 -27 122 -55 74 -35 113 -61 139 -91 56 -65 59
-81 6 -29 -96 94 -179 117 -537 152 -934 91 -2690 163 -3035 125z m2531 -155
c142 -8 305 -25 684 -71 44 -5 109 -12 145 -16 92 -9 160 -57 205 -144 21 -39
64 -451 65 -612 0 -79 -2 -87 -16 -79 -9 5 -24 7 -34 5 -13 -4 -21 8 -34 54
-10 32 -19 62 -20 67 -1 5 -27 9 -57 11 -31 1 -62 6 -69 10 -8 5 -29 8 -47 7
-18 -2 -33 1 -33 5 0 4 -15 8 -32 9 -75 2 -124 7 -133 14 -9 6 -43 11 -92 14
-13 0 -23 6 -23 13 0 6 -5 15 -12 19 -7 4 -8 3 -4 -4 5 -8 -2 -12 -18 -12 -14
0 -26 5 -26 10 0 7 -6 7 -20 0 -15 -8 -20 -8 -20 3 0 9 -9 12 -30 9 -23 -3
-30 0 -30 12 0 24 -30 8 -31 -18 -1 -16 -2 -17 -6 -3 -2 9 -11 17 -19 17 -8 0
-14 -8 -14 -17 0 -15 -2 -15 -9 -4 -5 8 -16 11 -25 8 -8 -3 -22 0 -30 8 -18
18 -36 19 -36 3 -1 -7 -9 -3 -19 10 -11 12 -22 22 -26 22 -4 0 -15 -10 -26
-22 -10 -13 -18 -17 -19 -10 0 6 -9 12 -20 12 -11 0 -20 5 -20 10 0 6 -14 10
-31 10 -26 0 -30 3 -27 23 2 17 -2 22 -19 21 -13 0 -23 3 -23 8 0 4 -7 8 -16
8 -17 0 -44 23 -44 39 0 5 -9 13 -20 16 -11 3 -20 13 -20 20 0 8 -6 12 -14 9
-14 -5 -23 0 -61 34 -8 7 -23 15 -32 17 -21 4 -154 72 -167 86 -13 12 18 12
42 0 9 -5 28 -13 42 -18 44 -18 84 -35 102 -44 10 -5 25 -9 34 -9 9 0 30 -6
47 -14 61 -27 207 -45 207 -26 0 9 -30 14 -82 14 -9 0 -15 3 -12 8 3 4 -2 9
-10 9 -25 2 -30 4 -46 14 -8 5 -23 8 -34 6 -11 -1 -16 2 -12 8 5 7 -3 11 -18
11 -14 0 -26 5 -26 10 0 6 -9 10 -20 10 -11 0 -20 5 -20 10 0 6 -8 10 -17 10
-15 0 -16 -2 -3 -10 13 -9 13 -10 0 -10 -23 0 -43 17 -36 29 4 7 -1 11 -13 11
-10 0 -22 -6 -25 -12 -4 -7 -4 -3 -2 10 2 12 0 22 -5 22 -5 0 -9 -4 -9 -10 0
-5 -7 -10 -16 -10 -11 0 -15 6 -11 20 3 13 0 20 -10 20 -8 0 -11 -4 -8 -10 4
-6 -5 -10 -20 -10 -14 0 -24 4 -21 9 3 5 -10 18 -30 30 -19 12 -32 26 -29 31
3 6 1 10 -4 10 -6 0 -11 -5 -11 -11 0 -8 -5 -8 -15 1 -8 7 -13 16 -10 20 3 4
-7 8 -21 8 -29 0 -71 19 -94 42 -8 9 -30 22 -47 29 -18 8 -33 17 -33 22 0 5
-11 9 -24 9 -14 0 -27 4 -30 9 -8 13 -150 13 -179 0 -17 -8 -27 -22 -32 -47
-4 -20 -13 -52 -21 -73 l-15 -37 -122 -7 c-67 -3 -151 -4 -187 -1 -36 3 -95 5
-132 5 -64 1 -68 2 -83 31 -22 42 -19 75 12 131 30 56 69 84 130 94 23 4 166
7 317 8 205 2 278 5 288 15 15 15 547 17 799 2z m-2151 -20 c85 -5 207 -14
270 -20 240 -20 267 -21 280 -5 15 18 70 20 70 4 0 -7 -38 -70 -85 -141 -47
-71 -85 -133 -85 -138 0 -6 -4 -10 -8 -10 -4 0 -16 -13 -25 -30 -10 -16 -22
-30 -28 -30 -13 0 -11 28 3 32 6 2 9 9 7 16 -4 13 -119 -149 -119 -167 0 -6
-4 -11 -10 -11 -5 0 -10 -5 -10 -11 0 -5 -18 -37 -40 -69 -22 -32 -40 -64 -40
-69 0 -6 -4 -11 -10 -11 -5 0 -10 -5 -10 -10 0 -6 -20 -41 -45 -78 l-45 -68
-118 -12 c-64 -6 -171 -16 -237 -22 -66 -6 -194 -17 -284 -25 -91 -8 -184 -15
-209 -15 l-43 0 19 28 c11 15 33 50 49 77 17 28 54 88 83 135 29 47 78 128
110 180 134 223 283 466 293 478 8 10 26 12 61 8 28 -3 121 -10 206 -16z
m3269 -220 c0 -10 -3 -8 -9 5 -12 27 -12 43 0 25 5 -8 9 -22 9 -30z m18 -82
c-3 -8 -6 -5 -6 6 -1 11 2 17 5 13 3 -3 4 -12 1 -19z m-1620 -4 c-3 -3 -12 -4
-19 -1 -8 3 -5 6 6 6 11 1 17 -2 13 -5z m40 -20 c-3 -3 -12 -4 -19 -1 -8 3 -5
6 6 6 11 1 17 -2 13 -5z m240 -60 c-3 -3 -12 -4 -19 -1 -8 3 -5 6 6 6 11 1 17
-2 13 -5z m1360 -86 c-2 -18 -4 -4 -4 32 0 36 2 50 4 33 2 -18 2 -48 0 -65z
m23 -135 c0 -42 -2 -74 -4 -72 -9 11 -15 160 -6 154 6 -3 10 -40 10 -82z
m-1043 -55 c-3 -8 -6 -5 -6 6 -1 11 2 17 5 13 3 -3 4 -12 1 -19z m1060 -200
c-2 -18 -4 -6 -4 27 0 33 2 48 4 33 2 -15 2 -42 0 -60z m-4059 -85 c-27 -2
-69 -2 -95 0 -27 2 -5 3 47 3 52 0 74 -1 48 -3z m-255 -20 c-7 -2 -21 -2 -30
0 -10 3 -4 5 12 5 17 0 24 -2 18 -5z m3682 -93 c49 -7 -17 -9 -482 -14 -79 -1
-139 2 -135 6 7 7 92 9 472 15 52 1 118 -2 145 -7z m-667 -27 c-15 -2 -42 -2
-60 0 -18 2 -6 4 27 4 33 0 48 -2 33 -4z m1292 -49 c0 -17 -4 -23 -12 -18 -8
5 -9 2 -5 -9 9 -24 -49 -64 -138 -95 -86 -31 -989 -47 -1776 -32 -236 4 -264
7 -250 20 32 32 81 36 391 29 504 -12 928 -10 1245 6 403 20 446 28 510 95 16
16 30 30 32 30 2 0 3 -12 3 -26z"/>
<path d="M11030 8698 c0 -4 28 -8 63 -8 34 0 73 -3 87 -6 20 -5 23 -4 13 6
-13 15 -163 22 -163 8z"/>
<path d="M11210 8680 c0 -11 170 -17 230 -9 35 5 24 6 -45 8 -49 1 -111 3
-137 5 -27 2 -48 0 -48 -4z"/>
<path d="M10995 8570 c-8 -13 -1 -24 14 -19 6 3 7 10 2 18 -6 10 -10 10 -16 1z"/>
<path d="M11525 8480 c-3 -5 1 -10 10 -10 9 0 13 5 10 10 -3 6 -8 10 -10 10
-2 0 -7 -4 -10 -10z"/>
<path d="M12183 9145 c-32 -14 -45 -46 -24 -59 12 -8 71 42 71 60 0 17 -6 17
-47 -1z"/>
<path d="M12290 9123 c0 -15 4 -35 10 -43 8 -12 10 -12 16 3 6 16 19 17 143
12 358 -15 491 -41 491 -95 0 -9 4 -20 10 -26 11 -11 2 -54 -12 -54 -5 0 -7
13 -3 30 4 18 3 30 -4 30 -14 0 -18 -38 -9 -85 14 -78 10 -120 -15 -143 -13
-12 -28 -22 -35 -22 -6 0 -14 -5 -17 -10 -4 -7 10 -10 42 -9 77 3 102 9 105
27 2 10 10 -2 19 -28 16 -43 23 -69 49 -170 6 -25 15 -58 20 -73 5 -16 5 -38
0 -50 -5 -12 -9 -16 -9 -8 -1 10 -8 8 -25 -8 -13 -12 -22 -30 -19 -39 2 -11
-10 -28 -33 -47 -21 -16 -68 -61 -105 -100 -37 -38 -71 -67 -74 -63 -3 3 -19
-6 -34 -21 -38 -34 -53 -46 -78 -60 -12 -6 -24 -20 -28 -30 -6 -20 -52 -41
-91 -41 -18 0 -24 -6 -24 -21 0 -19 4 -20 38 -15 20 3 55 8 77 11 22 4 49 10
60 15 11 5 34 11 50 12 18 2 29 8 28 16 -2 7 7 12 20 12 13 0 27 4 33 9 10 10
287 68 344 73 31 3 35 6 32 28 -2 14 -7 36 -11 50 -5 14 -14 45 -21 70 -7 25
-16 56 -20 70 -4 14 -13 45 -20 70 -7 25 -16 56 -20 70 -4 14 -13 45 -20 70
-7 25 -16 56 -20 70 -4 14 -13 45 -20 70 -7 25 -16 56 -20 70 -4 14 -13 45
-20 70 -14 52 -19 69 -51 168 -25 80 -44 100 -114 120 -50 14 -231 29 -447 37
l-168 6 0 -28z m687 -245 c-3 -7 -5 -2 -5 12 0 14 2 19 5 13 2 -7 2 -19 0 -25z
m20 -60 c-3 -8 -6 -5 -6 6 -1 11 2 17 5 13 3 -3 4 -12 1 -19z m120 -455 c-3
-10 -5 -4 -5 12 0 17 2 24 5 18 2 -7 2 -21 0 -30z m20 -65 c-3 -8 -6 -5 -6 6
-1 11 2 17 5 13 3 -3 4 -12 1 -19z"/>
<path d="M12206 9075 c-14 -13 -26 -32 -26 -41 0 -16 1 -16 18 -1 16 15 42 23
42 14 0 -2 16 -66 36 -143 19 -76 41 -170 48 -209 31 -161 161 -655 174 -655
21 0 15 34 -62 345 -40 165 -93 379 -115 475 -64 267 -62 264 -115 215z"/>
<path d="M12317 9047 c-7 -19 2 -57 14 -57 11 0 11 41 0 58 -7 11 -9 11 -14
-1z"/>
<path d="M12341 8940 c0 -40 2 -42 11 -22 8 16 8 28 0 45 -9 19 -11 17 -11
-23z"/>
<path d="M12361 8855 c0 -35 1 -37 10 -17 6 15 5 30 -1 40 -7 13 -9 8 -9 -23z"/>
<path d="M12381 8775 c0 -35 1 -37 10 -17 6 15 5 30 -1 40 -7 13 -9 8 -9 -23z"/>
<path d="M12400 8689 c0 -17 4 -28 10 -24 6 3 10 17 10 31 0 13 -4 24 -10 24
-5 0 -10 -14 -10 -31z"/>
<path d="M12246 8598 c9 -71 14 -73 14 -5 0 33 -4 57 -10 57 -7 0 -8 -19 -4
-52z"/>
<path d="M12420 8618 c0 -21 5 -38 10 -38 13 0 13 40 0 60 -7 11 -10 5 -10
-22z"/>
<path d="M12440 8538 c0 -21 5 -38 10 -38 13 0 13 40 0 60 -7 11 -10 5 -10
-22z"/>
<path d="M12460 8458 c0 -21 5 -38 10 -38 13 0 13 40 0 60 -7 11 -10 5 -10
-22z"/>
<path d="M13075 8451 c-3 -5 -1 -12 5 -16 5 -3 10 1 10 9 0 18 -6 21 -15 7z"/>
<path d="M12480 8376 c0 -20 5 -36 10 -36 6 0 10 13 10 29 0 17 -4 33 -10 36
-6 4 -10 -8 -10 -29z"/>
<path d="M12500 8296 c0 -20 5 -36 10 -36 6 0 10 13 10 29 0 17 -4 33 -10 36
-6 4 -10 -8 -10 -29z"/>
<path d="M12520 8211 c0 -23 5 -41 10 -41 6 0 10 -18 10 -40 0 -22 5 -40 10
-40 6 0 10 15 10 34 0 19 -4 38 -10 41 -5 3 -10 21 -10 40 0 19 -4 37 -10 40
-6 4 -10 -10 -10 -34z"/>
<path d="M12560 8045 c0 -19 5 -35 10 -35 6 0 10 16 10 35 0 19 -4 35 -10 35
-5 0 -10 -16 -10 -35z"/>
<path d="M12900 8030 c0 -5 7 -10 15 -10 8 0 15 5 15 10 0 6 -7 10 -15 10 -8
0 -15 -4 -15 -10z"/>
<path d="M12391 7984 c-72 -16 -79 -20 -64 -35 19 -19 193 18 193 41 0 13 -51
11 -129 -6z"/>
<path d="M14485 7953 c-20 -147 -49 -214 -129 -294 -31 -31 -56 -64 -56 -73 0
-19 20 -22 21 -3 0 6 4 2 9 -10 6 -15 18 -23 33 -23 14 0 30 -6 36 -14 7 -8
23 -17 37 -20 22 -6 51 -26 93 -66 9 -8 28 -20 43 -27 54 -24 78 -54 79 -97 1
-40 1 -40 16 19 35 140 25 376 -19 472 -21 44 -125 174 -145 180 -7 3 -14 -14
-18 -44z"/>
<path d="M12538 7943 c7 -3 16 -2 19 1 4 3 -2 6 -13 5 -11 0 -14 -3 -6 -6z"/>
<path d="M8905 7900 c88 -13 472 -28 530 -20 38 4 13 8 -100 13 -271 13 -496
16 -430 7z"/>
<path d="M12300 7887 c-197 -84 -280 -152 -280 -231 0 -54 128 -346 151 -346
13 0 12 6 -15 58 -30 61 -65 162 -80 235 -22 100 11 144 164 222 41 20 81 43
88 50 19 18 2 25 -28 12z"/>
<path d="M9730 7870 c36 -12 60 -12 60 0 0 6 -19 10 -42 9 -37 -1 -39 -2 -18
-9z"/>
<path d="M13684 7757 c-28 -23 -72 -59 -98 -79 -58 -45 -44 -59 24 -24 27 14
66 26 85 26 48 0 74 15 90 53 10 23 10 35 1 49 -17 28 -46 21 -102 -25z"/>
<path d="M14184 7497 c-54 -36 -112 -140 -144 -257 -7 -25 -21 -70 -31 -100
-9 -30 -32 -102 -49 -160 -17 -58 -36 -118 -41 -135 -5 -16 -27 -95 -49 -175
-22 -80 -45 -163 -51 -185 -6 -22 -15 -51 -19 -65 -5 -14 -27 -86 -50 -160
-23 -74 -46 -151 -53 -170 -6 -19 -10 -69 -10 -110 1 -71 0 -77 -30 -109 -57
-60 -243 -204 -318 -247 -10 -6 -27 -17 -36 -25 -10 -8 -30 -21 -45 -29 -16
-7 -28 -17 -28 -22 0 -4 -5 -8 -11 -8 -6 0 -29 -13 -52 -28 -23 -15 -54 -34
-69 -41 -16 -8 -28 -18 -28 -23 0 -4 -7 -8 -15 -8 -8 0 -15 -3 -15 -8 0 -4
-21 -18 -47 -32 -27 -13 -66 -36 -88 -50 -22 -15 -55 -33 -72 -41 -18 -8 -33
-17 -33 -21 0 -5 -7 -8 -15 -8 -8 0 -15 -3 -15 -8 0 -4 -15 -13 -32 -21 -18
-8 -44 -22 -58 -31 -14 -10 -41 -27 -61 -38 -76 -42 -84 -47 -89 -52 -3 -3
-23 -14 -45 -26 -53 -27 -89 -48 -95 -54 -3 -3 -26 -16 -52 -29 -27 -13 -48
-28 -48 -33 0 -4 -9 -8 -20 -8 -11 0 -20 -4 -20 -10 0 -5 -6 -10 -13 -10 -7 0
-23 -9 -35 -20 -12 -11 -28 -20 -37 -20 -8 0 -15 -4 -15 -10 0 -5 -9 -10 -20
-10 -11 0 -20 -4 -20 -10 0 -5 -6 -10 -13 -10 -7 0 -23 -9 -35 -20 -12 -11
-28 -20 -37 -20 -8 0 -15 -4 -15 -10 0 -5 -6 -10 -13 -10 -7 0 -23 -9 -35 -20
-12 -11 -28 -20 -37 -20 -8 0 -15 -4 -15 -9 0 -5 -8 -11 -17 -14 -18 -6 -73
-37 -83 -47 -3 -3 -15 -11 -27 -17 -13 -7 -33 -19 -45 -25 -13 -7 -25 -15 -28
-18 -10 -10 -65 -41 -82 -47 -10 -3 -18 -9 -18 -14 0 -5 -9 -9 -20 -9 -11 0
-20 -4 -20 -9 0 -5 -9 -13 -20 -16 -11 -3 -26 -12 -33 -18 -18 -17 -69 -47
-89 -54 -10 -3 -18 -9 -18 -14 0 -5 -5 -9 -11 -9 -6 0 -30 -13 -54 -30 -24
-16 -46 -30 -50 -30 -4 0 -26 -13 -50 -30 -24 -16 -46 -30 -49 -30 -2 0 -34
-20 -70 -45 -37 -25 -69 -45 -72 -45 -3 0 -25 -13 -49 -30 -24 -16 -46 -30
-50 -30 -4 0 -26 -13 -50 -30 -24 -16 -48 -30 -53 -30 -6 0 -12 -3 -14 -7 -4
-10 -57 -42 -80 -50 -10 -3 -18 -9 -18 -14 0 -5 -13 -9 -29 -9 -17 0 -33 -4
-36 -10 -9 -15 -145 -13 -145 3 1 6 39 30 86 51 105 49 196 108 249 161 56 56
65 108 65 381 0 212 -4 272 -36 493 -19 135 -105 471 -144 561 -56 133 -155
255 -264 328 -56 36 -89 47 -195 62 -88 12 -184 2 -319 -35 -377 -102 -614
-338 -841 -838 -17 -37 -31 -70 -31 -72 0 -6 -37 -92 -51 -117 -5 -10 -9 -25
-9 -33 0 -8 -4 -23 -9 -33 -12 -23 -26 -60 -41 -102 -7 -19 -16 -44 -21 -55
-4 -11 -15 -40 -23 -65 -49 -151 -131 -348 -233 -555 -64 -132 -154 -278 -243
-395 -15 -19 -60 -80 -101 -135 -41 -54 -99 -126 -129 -158 -51 -56 -187 -157
-210 -157 -5 0 -10 -4 -10 -10 0 -5 -10 -10 -23 -10 -13 0 -27 -4 -33 -9 -13
-13 -159 -61 -219 -72 -27 -5 -113 -14 -190 -19 -77 -5 -174 -14 -215 -19
-216 -28 -747 -89 -835 -96 -27 -2 -92 -8 -142 -14 -51 -6 -96 -10 -100 -9 -5
1 -30 -1 -58 -5 -62 -8 -291 -21 -365 -20 -92 1 -253 14 -289 23 -19 5 -37 7
-41 5 -4 -2 -56 2 -116 10 -60 9 -145 20 -189 26 -152 20 -210 28 -275 39 -36
6 -94 15 -130 20 -133 19 -271 42 -350 60 -30 7 -74 16 -97 21 -65 14 -123 27
-173 39 -25 6 -63 15 -85 20 -43 10 -106 25 -247 61 -24 6 -58 13 -76 16 -18
3 -35 9 -38 14 -3 5 -20 9 -39 9 -19 0 -36 4 -39 9 -3 5 -22 12 -41 15 -19 3
-51 9 -70 12 -19 3 -38 10 -41 15 -3 5 -18 9 -33 9 -15 0 -31 4 -37 9 -5 5
-34 12 -64 15 -30 3 -45 2 -33 -2 16 -5 20 -11 14 -21 -5 -7 -6 -22 -3 -34 3
-14 1 -18 -6 -13 -15 9 -15 1 -2 -25 9 -15 7 -19 -6 -19 -16 0 -16 -1 -1 -18
9 -10 15 -27 14 -39 -2 -28 34 -93 51 -93 9 0 12 -7 9 -20 -3 -13 0 -20 9 -20
8 0 14 -7 14 -15 0 -16 87 -105 102 -105 5 0 24 -12 43 -27 18 -15 40 -28 49
-29 8 -1 28 -11 43 -21 15 -11 48 -25 73 -33 25 -7 51 -18 59 -24 8 -6 22 -10
33 -8 10 2 18 -2 18 -7 0 -6 9 -11 20 -11 11 0 20 -4 20 -8 0 -4 21 -14 48
-22 26 -7 61 -21 77 -30 30 -16 48 -20 93 -20 13 0 21 -4 17 -9 -3 -6 3 -10
12 -11 58 -3 73 -6 73 -18 0 -7 4 -11 9 -7 5 3 13 1 16 -5 5 -8 11 -8 20 0 9
8 15 8 20 0 3 -6 11 -7 17 -4 6 4 17 -1 24 -11 7 -10 20 -15 28 -12 9 4 18 2
21 -3 4 -6 24 -7 46 -4 32 5 39 4 39 -10 0 -13 4 -15 18 -7 12 6 37 2 84 -13
37 -13 81 -23 99 -24 17 0 39 -8 48 -16 10 -9 20 -13 23 -10 3 3 26 0 49 -7
24 -7 50 -11 57 -10 8 1 20 -3 28 -10 8 -6 23 -9 33 -6 11 3 30 -2 42 -11 16
-11 24 -12 27 -4 3 9 11 8 32 -3 15 -8 30 -12 33 -9 3 3 25 0 48 -7 24 -6 55
-13 69 -15 14 -1 57 -10 95 -19 39 -9 79 -16 89 -16 11 0 27 -4 36 -9 9 -5 22
-5 30 0 9 5 27 2 50 -10 23 -12 41 -15 50 -10 9 5 19 5 27 -1 7 -6 16 -8 21
-5 5 3 18 -1 28 -8 13 -10 23 -11 31 -5 7 7 26 6 55 -2 24 -7 67 -11 97 -10
31 1 60 -4 69 -11 12 -10 16 -10 19 -1 3 9 10 10 21 4 10 -5 44 -9 77 -10 98
-1 350 -15 395 -21 8 -2 20 -1 25 0 23 5 115 -1 114 -8 -3 -19 3 -21 29 -8 23
12 32 12 52 1 13 -7 29 -11 35 -9 6 3 25 -1 41 -7 16 -7 43 -11 59 -10 17 1
43 -5 59 -13 16 -8 34 -12 42 -9 7 2 19 1 26 -3 7 -4 42 -10 78 -12 36 -2 67
-7 70 -12 3 -4 41 -10 85 -13 44 -3 94 -8 110 -11 17 -3 53 -8 80 -11 28 -3
77 -10 110 -14 33 -5 67 -9 75 -9 8 1 56 -5 105 -12 50 -7 108 -14 130 -15 47
-3 414 -41 530 -55 44 -5 107 -12 140 -15 70 -5 344 -34 395 -42 19 -2 46 -4
60 -4 14 0 63 -4 110 -9 47 -5 150 -12 230 -15 80 -3 154 -8 165 -10 17 -3
127 6 218 19 61 9 138 51 227 126 250 210 314 273 345 335 15 31 33 59 41 62
8 3 14 10 14 15 0 11 39 105 72 173 11 25 16 48 12 60 -5 13 -4 16 5 11 8 -6
11 -1 9 16 -2 12 19 68 46 123 26 55 52 109 56 120 4 11 12 32 19 48 6 15 16
38 21 52 24 61 33 81 41 97 5 10 9 27 9 37 0 11 5 23 10 26 6 3 10 15 10 26 0
25 16 24 23 -2 5 -18 8 -19 29 -8 32 17 48 35 48 53 0 9 7 16 15 16 9 0 18 12
22 30 4 21 11 30 24 30 12 0 19 7 19 20 0 13 7 20 20 20 13 0 20 7 20 19 0 11
9 23 20 26 11 3 20 13 20 21 0 8 9 14 20 14 11 0 20 3 20 8 0 4 14 16 30 27
16 11 30 27 30 35 0 13 1 13 10 0 8 -13 12 -12 28 6 11 11 34 26 51 34 17 7
31 17 31 22 0 5 13 8 29 6 16 -1 36 3 45 11 8 7 22 11 30 8 7 -3 30 6 50 19
20 14 42 23 49 21 7 -2 25 2 40 10 16 8 35 12 42 9 7 -2 21 2 32 9 10 8 30 15
45 15 15 0 30 5 33 10 4 6 11 8 16 5 5 -4 9 0 9 7 0 17 128 59 133 44 2 -7 10
-6 22 4 10 8 21 15 24 15 3 0 5 3 4 7 -2 5 12 8 30 8 21 0 41 8 52 20 10 11
24 20 31 20 8 0 33 8 56 19 147 64 194 87 201 98 4 7 14 10 22 7 8 -4 15 -1
15 4 0 12 232 132 254 132 7 0 25 9 39 20 14 11 32 20 41 20 19 0 52 18 83 44
12 10 29 16 37 13 10 -4 16 -1 16 6 0 14 60 47 84 47 7 0 24 9 37 21 13 11 36
23 51 26 16 3 28 10 28 15 0 5 5 6 10 3 6 -3 10 0 10 8 0 8 35 31 78 51 42 21
97 52 122 71 25 19 54 34 66 34 11 1 29 10 39 21 10 11 24 20 31 20 7 0 16 9
19 20 3 11 14 20 23 20 10 0 23 9 30 20 7 11 19 20 27 20 8 0 14 5 13 12 -2 6
6 16 18 22 11 6 28 19 38 29 10 9 26 17 37 17 10 0 19 5 19 10 0 6 10 10 23
10 12 0 40 6 62 14 22 8 74 17 115 20 465 42 593 68 651 134 123 138 156 192
203 336 41 123 57 184 97 351 38 164 44 209 69 515 23 275 24 302 8 311 -11 6
-12 21 -6 71 28 236 28 514 0 621 -16 59 -63 150 -91 174 -33 29 -85 29 -127
0z m-269 -985 c-9 -42 -20 -93 -25 -112 -10 -39 -15 -74 -35 -230 l-14 -105 4
147 c2 80 8 163 14 185 32 121 46 163 53 163 4 0 8 12 9 28 0 15 3 21 6 14 3
-7 -2 -48 -12 -90z m324 61 c5 -10 12 -49 16 -86 4 -37 13 -74 20 -81 18 -17
22 -281 7 -411 -6 -55 -18 -160 -26 -233 -17 -156 -41 -219 -111 -287 -49 -47
-65 -55 -65 -30 0 19 -11 19 -36 0 -34 -26 -70 -18 -103 22 -29 36 -32 53 -8
53 7 0 13 10 13 23 1 19 -3 22 -32 22 -27 0 -33 -3 -28 -15 3 -8 11 -28 17
-45 15 -44 73 -95 108 -95 16 0 29 5 29 10 0 6 8 10 18 10 30 -1 -36 -50 -67
-50 -35 0 -102 57 -136 115 -33 56 -57 182 -50 262 11 117 20 115 39 -8 10
-63 22 -118 27 -123 10 -11 26 5 65 64 44 66 45 69 114 283 7 24 6 29 -15 37
-26 10 -41 69 -30 120 6 25 2 34 -25 56 l-31 27 37 38 c45 46 69 51 60 14 -8
-30 2 -54 14 -35 5 7 16 10 25 6 15 -5 16 -17 12 -84 -3 -42 -9 -92 -13 -109
-5 -25 -3 -33 8 -33 21 0 47 68 49 126 2 60 4 63 29 57 17 -5 20 -14 22 -72
l1 -66 7 75 c3 41 12 85 19 98 6 12 10 30 7 40 -3 9 -8 62 -11 117 -3 55 -8
124 -11 153 -4 42 -3 52 10 52 8 0 19 -8 25 -17z m-4241 -979 c39 -8 102 -61
126 -106 25 -46 15 -128 -14 -128 -10 0 -21 4 -24 8 -3 5 -31 14 -63 21 -32 7
-64 18 -71 24 -8 6 -43 8 -92 4 -73 -6 -81 -5 -91 14 -6 11 -13 18 -17 15 -3
-4 -11 3 -18 16 -12 22 -5 44 23 75 6 7 14 22 18 32 3 11 14 22 23 24 27 7
166 8 200 1z m309 -466 c-3 -8 -6 -5 -6 6 -1 11 2 17 5 13 3 -3 4 -12 1 -19z
m-199 -20 c73 -30 91 -40 140 -86 28 -28 52 -54 52 -58 0 -5 9 -20 20 -34 l20
-25 0 23 c0 13 -4 20 -10 17 -6 -4 -10 7 -10 24 0 18 -5 31 -12 31 -10 0 -10
2 -2 8 17 11 21 47 6 64 -10 12 -10 18 2 27 24 20 51 4 145 -87 86 -84 89 -89
95 -142 25 -210 21 -619 -5 -720 l-15 -55 -7 35 c-4 19 -18 48 -33 65 -17 20
-23 36 -20 52 4 12 2 25 -4 28 -5 3 -10 36 -10 72 0 112 -11 62 -21 -94 -5
-81 -14 -179 -18 -218 -5 -38 -11 -108 -14 -155 -3 -47 -10 -97 -16 -112 -9
-24 -15 -109 -12 -175 3 -62 -156 -397 -212 -445 -11 -10 -17 -18 -13 -18 4 0
-9 -25 -29 -55 -19 -31 -35 -58 -35 -60 0 -3 -27 -39 -60 -79 -153 -190 -269
-242 -460 -209 -47 8 -91 19 -98 25 -7 6 -27 11 -44 10 -17 0 -45 6 -61 14
-26 14 -31 14 -50 -3 -12 -10 -27 -25 -34 -34 -10 -14 -21 -15 -65 -7 -53 10
-120 39 -150 65 -10 9 -23 13 -31 10 -8 -3 -20 4 -28 15 -8 12 -26 36 -41 53
-16 18 -28 39 -28 46 0 8 -9 20 -20 27 -12 7 -18 17 -15 22 3 6 -1 10 -9 10
-12 0 -16 11 -16 49 0 27 -5 51 -10 53 -6 2 -11 36 -12 76 0 40 -4 75 -8 77
-4 3 -5 16 -2 30 4 24 3 26 -24 19 -26 -6 -27 -5 -16 8 9 12 10 18 2 23 -8 5
-8 11 1 21 7 9 11 44 11 90 -1 42 2 83 8 93 5 10 10 39 11 65 2 26 6 49 11 52
4 3 8 16 8 30 0 14 6 24 14 24 7 0 17 15 21 33 8 32 8 32 17 -18 5 -27 11 -51
12 -53 6 -6 56 21 56 31 0 5 15 0 34 -11 32 -19 33 -19 29 -1 -3 12 0 19 8 19
13 0 30 -29 44 -77 3 -13 13 -23 21 -23 17 0 18 -21 2 -39 -11 -11 -10 -13 0
-7 14 8 36 -39 28 -61 -3 -8 1 -16 9 -19 8 -4 15 -11 15 -18 0 -6 9 -17 20
-23 17 -11 21 -9 37 25 10 20 30 49 45 64 28 27 28 28 28 165 0 86 6 158 14
190 8 29 12 69 8 90 -3 21 -5 61 -5 88 1 46 6 76 32 180 6 22 13 54 16 70 4
17 10 39 15 50 4 11 14 40 21 65 7 25 16 49 21 55 4 5 8 17 8 27 0 10 4 26 9
36 5 9 13 28 19 42 47 118 146 294 195 345 11 11 26 30 34 43 37 55 184 146
263 163 42 9 120 3 158 -13z m-2039 -1994 c7 -30 10 -58 7 -61 -6 -6 -11 7
-19 47 -3 14 -9 35 -12 48 -4 12 -3 22 2 22 6 0 15 -25 22 -56z m661 12 c0 -8
-5 -18 -11 -22 -14 -8 -33 11 -25 25 10 16 36 13 36 -3z m-269 -12 c12 -14 11
-16 -5 -13 -11 2 -21 10 -24 17 -5 17 13 15 29 -4z m294 -104 c-9 -15 -25 -12
-32 6 -8 21 19 38 30 18 4 -8 5 -19 2 -24z m-655 -1 c0 -11 -4 -17 -10 -14 -5
3 -10 15 -10 26 0 11 5 17 10 14 6 -3 10 -15 10 -26z m390 6 c0 -8 -7 -15 -15
-15 -8 0 -15 7 -15 15 0 8 7 15 15 15 8 0 15 -7 15 -15z m-370 -61 c0 -8 -4
-14 -10 -14 -5 0 -10 9 -10 21 0 11 5 17 10 14 6 -3 10 -13 10 -21z"/>
<path d="M14172 5935 c0 -16 2 -22 5 -12 2 9 2 23 0 30 -3 6 -5 -1 -5 -18z"/>
<path d="M13960 5510 c0 -6 7 -10 15 -10 8 0 15 2 15 4 0 2 -7 6 -15 10 -8 3
-15 1 -15 -4z"/>
<path d="M10330 5000 c0 -5 5 -10 11 -10 5 0 7 5 4 10 -3 6 -8 10 -11 10 -2 0
-4 -4 -4 -10z"/>
<path d="M9896 4991 c-8 -12 30 -35 44 -26 5 3 18 -3 30 -15 11 -11 25 -20 30
-20 6 0 9 -6 8 -12 -2 -8 6 -12 20 -10 17 3 22 -2 22 -20 0 -17 3 -19 9 -9 6
9 11 10 15 2 12 -18 26 -13 26 10 0 21 -22 49 -39 49 -5 0 -13 9 -16 20 -7 21
-30 27 -40 10 -3 -5 -11 -10 -16 -10 -6 0 -8 4 -4 9 7 12 -2 18 -46 26 -22 4
-39 3 -43 -4z"/>
<path d="M9793 4930 c-36 -8 -103 -55 -103 -71 0 -6 -4 -8 -9 -5 -5 3 -12 -6
-15 -20 -10 -39 -56 -103 -71 -98 -10 4 -45 -49 -45 -70 0 -3 -12 -31 -26 -63
-14 -32 -30 -68 -35 -80 -22 -57 -32 -79 -40 -95 -5 -10 -9 -25 -9 -33 0 -8
-4 -23 -9 -33 -8 -15 -17 -46 -42 -139 -5 -18 -13 -48 -19 -66 -17 -56 -17
-56 93 -59 l102 -3 19 50 c17 42 21 86 25 270 4 121 10 225 14 232 4 6 16 9
27 6 11 -3 28 -2 37 3 10 4 20 8 23 9 3 1 18 7 33 13 16 7 38 12 49 12 20 0
20 -3 14 -142 -9 -179 -20 -226 -55 -241 -31 -14 -81 -61 -81 -76 0 -6 -4 -11
-10 -11 -5 0 -10 -5 -10 -10 0 -6 -8 -29 -19 -53 -36 -82 -46 -132 -46 -232 0
-97 14 -160 39 -177 6 -4 7 -10 3 -15 -9 -8 -46 35 -47 54 0 6 -5 15 -11 18
-7 5 -9 -11 -8 -45 3 -50 1 -54 -37 -87 -21 -20 -74 -68 -117 -108 l-78 -73 6
-44 c20 -145 38 -167 137 -168 93 0 98 3 98 62 0 76 30 231 49 250 11 12 35
17 78 19 35 1 65 0 68 -3 3 -3 9 -25 13 -48 l7 -43 34 69 c18 38 37 79 42 92
19 47 32 78 40 94 5 10 9 29 9 42 0 14 5 28 10 31 6 3 10 21 10 40 0 19 5 37
10 40 6 3 10 22 10 41 0 27 -4 34 -19 34 -20 0 -24 12 -37 135 -3 33 -17 82
-30 109 -26 53 -26 57 24 118 55 68 62 73 70 60 24 -35 16 72 -14 191 -8 35
10 57 47 57 16 0 29 5 29 10 0 6 7 10 15 10 8 0 15 -5 15 -11 0 -18 -30 -41
-45 -35 -8 3 -17 1 -20 -3 -12 -21 35 -17 58 5 l25 23 -20 58 c-42 121 -67
162 -118 188 -35 18 -99 25 -137 15z m47 -771 c0 -11 -10 -23 -23 -28 -43 -17
-59 -56 -73 -183 -6 -46 -5 -48 18 -48 26 0 68 40 68 65 0 8 5 15 10 15 6 0
10 7 10 15 0 8 7 15 15 15 34 0 5 -91 -47 -146 -27 -30 -86 -36 -118 -14 -29
21 -55 97 -47 138 14 69 20 89 32 117 16 36 45 70 63 76 7 2 31 3 53 1 30 -3
39 -8 39 -23z"/>
<path d="M10345 4890 c3 -5 8 -10 11 -10 2 0 4 5 4 10 0 6 -5 10 -11 10 -5 0
-7 -4 -4 -10z"/>
<path d="M10110 4817 c0 -21 35 -67 51 -67 17 0 20 6 17 33 -3 28 -7 32 -35
35 -18 2 -33 1 -33 -1z"/>
<path d="M9982 4335 c0 -16 2 -22 5 -12 2 9 2 23 0 30 -3 6 -5 -1 -5 -18z"/>
<path d="M9981 4246 c-1 -38 2 -57 9 -50 5 5 6 29 1 59 l-9 50 -1 -59z"/>
<path d="M9980 4170 c0 -5 5 -10 10 -10 6 0 10 5 10 10 0 6 -4 10 -10 10 -5 0
-10 -4 -10 -10z"/>
<path d="M9542 4000 c0 -19 2 -27 5 -17 2 9 2 25 0 35 -3 9 -5 1 -5 -18z"/>
<path d="M9541 3888 c-1 -20 4 -40 9 -43 12 -7 12 32 0 60 -7 16 -9 13 -9 -17z"/>
<path d="M10190 3733 c0 -21 3 -24 9 -14 5 8 7 20 4 28 -8 21 -13 15 -13 -14z"/>
<path d="M10085 3707 c-6 -7 -18 -30 -27 -52 -31 -76 -82 -180 -110 -222 -15
-23 -28 -46 -28 -52 0 -6 -4 -11 -8 -11 -4 0 -15 -13 -25 -29 -9 -15 -32 -46
-51 -67 -19 -21 -32 -41 -30 -44 3 -2 9 2 13 9 7 10 10 8 15 -10 4 -13 14 -41
23 -62 14 -33 15 -40 3 -47 -8 -5 -12 -11 -9 -15 17 -16 179 168 179 204 0 5
3 11 8 13 7 3 64 117 83 166 5 12 13 32 18 45 5 12 14 38 21 57 7 19 17 45 22
57 6 12 7 34 3 50 -4 15 -10 22 -12 16 -5 -15 -70 -18 -75 -4 -1 5 -8 4 -13
-2z"/>
<path d="M9652 2952 c-13 -4 -24 -11 -25 -17 -3 -14 103 -19 116 -6 8 8 5 11
-10 11 -12 0 -25 5 -28 10 -7 11 -18 11 -53 2z"/>
<path d="M9603 2905 c-10 -10 -9 -14 2 -19 17 -6 26 5 17 21 -5 8 -11 7 -19
-2z"/>
<path d="M14630 7133 c0 -20 -65 -219 -80 -245 -6 -10 -10 -24 -10 -32 0 -8
-13 -40 -29 -70 -29 -57 -29 -69 4 -74 33 -5 260 -123 292 -151 7 -6 16 -11
21 -11 18 0 74 -33 79 -46 3 -8 13 -14 24 -14 10 0 24 -8 31 -18 7 -10 25 -22
40 -25 15 -4 33 -14 42 -22 8 -8 22 -15 30 -15 9 0 21 -9 28 -20 7 -11 21 -20
30 -20 10 0 23 -9 30 -20 7 -11 21 -20 30 -20 10 0 23 -9 30 -20 7 -11 21 -20
30 -20 10 0 23 -9 30 -20 7 -11 19 -20 27 -20 8 0 31 -18 52 -40 21 -22 44
-40 51 -40 14 0 218 -203 218 -217 0 -5 9 -19 21 -32 11 -12 19 -28 16 -35 -3
-8 8 -18 29 -26 19 -8 34 -20 34 -27 0 -7 4 -13 8 -13 16 0 53 -38 51 -52 -3
-28 2 -38 19 -38 11 0 24 -11 30 -24 6 -13 20 -27 32 -31 16 -5 20 -14 18 -41
-1 -20 2 -38 7 -42 21 -15 56 -74 52 -86 -3 -6 1 -23 9 -37 7 -13 13 -36 14
-51 0 -16 6 -28 13 -28 9 0 9 -2 0 -8 -12 -8 -13 -18 -12 -79 0 -13 5 -25 10
-29 6 -4 4 -13 -7 -25 -16 -18 -16 -19 2 -19 10 0 15 -4 9 -8 -5 -4 -18 -17
-28 -28 -17 -20 -17 -23 -2 -38 9 -9 12 -16 6 -16 -6 0 -11 -8 -11 -18 0 -10
-12 -29 -26 -41 -23 -20 -24 -24 -11 -39 13 -15 12 -21 -4 -47 -10 -16 -24
-41 -30 -55 -32 -74 -46 -95 -64 -99 -24 -4 -57 -40 -49 -53 9 -14 -17 -68
-32 -68 -8 0 -19 -11 -24 -24 -5 -13 -13 -27 -18 -30 -6 -3 -8 -15 -5 -26 4
-14 0 -20 -12 -20 -21 0 -45 -24 -45 -44 0 -9 -9 -21 -20 -28 -11 -7 -20 -20
-20 -30 0 -9 -9 -20 -21 -23 -11 -4 -25 -18 -31 -31 -6 -13 -17 -24 -24 -24
-8 0 -11 -6 -8 -15 8 -20 -13 -45 -37 -45 -11 0 -19 -7 -19 -15 0 -19 -40 -65
-56 -65 -7 0 -10 -8 -8 -17 3 -12 -8 -26 -32 -40 -19 -13 -39 -23 -44 -23 -4
0 -6 -9 -3 -20 4 -15 0 -20 -16 -20 -11 0 -30 -8 -40 -17 -37 -33 -50 -43 -61
-43 -5 0 -9 -4 -8 -8 3 -9 -72 -92 -84 -92 -4 0 -19 -11 -34 -25 -15 -14 -24
-25 -20 -25 15 0 -22 -29 -59 -47 -21 -10 -37 -22 -36 -26 3 -10 -38 -47 -51
-47 -4 0 -8 -7 -8 -15 0 -8 -7 -15 -17 -15 -9 0 -14 -3 -10 -6 7 -8 -55 -52
-100 -71 -18 -7 -33 -19 -33 -26 0 -11 -44 -37 -63 -37 -6 0 -16 -8 -23 -17
-7 -10 -18 -18 -26 -18 -7 0 -13 -7 -13 -15 0 -8 -20 -25 -44 -37 -63 -32 -91
-55 -91 -75 0 -10 -6 -18 -14 -18 -7 0 -31 -8 -52 -17 -22 -9 -43 -17 -49 -18
-5 0 -9 -8 -7 -18 4 -22 -16 -42 -51 -51 -15 -3 -27 -13 -27 -21 0 -9 -9 -15
-23 -15 -13 0 -40 -16 -61 -35 -36 -32 -49 -39 -68 -36 -5 0 -8 -5 -8 -13 0
-7 -13 -19 -30 -26 -16 -7 -30 -15 -30 -19 0 -3 -18 -15 -40 -25 -22 -11 -40
-25 -40 -31 0 -7 -13 -15 -29 -18 -16 -3 -35 -12 -42 -19 -8 -8 -40 -22 -71
-32 -35 -11 -58 -24 -58 -32 0 -8 -8 -14 -19 -14 -10 0 -32 -7 -47 -15 -16 -8
-25 -15 -21 -15 14 0 -21 -30 -35 -30 -17 -1 -58 -35 -58 -48 0 -6 -13 -10
-29 -10 -32 1 -51 -8 -51 -25 0 -14 -78 -53 -97 -49 -7 2 -20 -4 -29 -13 -8
-8 -24 -15 -34 -15 -10 0 -31 -7 -46 -15 -16 -8 -25 -15 -21 -15 14 0 -16 -24
-59 -47 -23 -13 -50 -23 -61 -23 -11 0 -23 -3 -27 -7 -4 -5 -12 -8 -17 -8 -5
0 -10 -4 -11 -10 -7 -36 -95 -79 -148 -73 -16 1 -29 -1 -29 -5 0 -5 -17 -20
-38 -34 -21 -14 -45 -33 -53 -42 -16 -17 -82 -44 -97 -39 -4 2 -18 -6 -30 -17
-58 -52 -70 -61 -105 -73 -20 -7 -42 -11 -50 -10 -7 2 -12 -3 -11 -9 2 -7 -3
-13 -11 -13 -7 0 -27 -13 -44 -30 -18 -16 -37 -30 -44 -30 -9 0 -8 3 2 10 8 5
12 11 9 14 -2 3 -21 -11 -41 -30 -39 -36 -72 -48 -47 -17 8 9 -3 4 -23 -11
-21 -16 -38 -33 -38 -38 0 -6 -9 -8 -20 -5 -26 7 -26 -10 0 -18 18 -6 122 23
162 45 10 6 26 10 36 10 10 0 22 4 28 8 5 4 27 14 49 21 42 13 78 27 107 42
10 5 25 9 33 9 8 0 23 4 33 9 9 5 31 14 47 21 17 7 38 16 47 21 10 5 25 9 33
9 8 0 23 4 33 9 19 10 79 34 145 60 12 4 36 14 52 21 17 7 39 16 50 20 35 13
68 27 120 50 28 12 60 26 73 31 12 5 32 13 45 18 12 5 42 18 67 29 25 11 63
28 85 37 22 9 65 28 95 42 30 14 73 33 95 43 128 56 516 247 660 324 55 29
136 72 180 96 44 23 85 46 90 50 6 4 27 17 48 29 98 55 114 65 139 82 14 11
29 19 33 19 3 0 26 14 50 30 24 17 46 30 49 30 13 0 428 282 547 372 368 276
663 564 872 848 42 57 146 231 174 290 41 88 63 140 63 150 0 6 4 18 9 28 8
15 19 52 42 137 30 116 39 333 18 437 -51 253 -149 429 -348 629 -183 183
-372 312 -657 449 -82 40 -158 76 -169 80 -11 4 -36 15 -55 23 -99 43 -375
137 -525 178 -22 6 -51 15 -65 19 -14 4 -43 12 -65 18 -22 6 -59 15 -81 21
-64 17 -104 14 -104 -6z"/>
<path d="M2203 6767 c-18 -6 -33 -15 -33 -19 0 -4 -9 -8 -20 -8 -11 0 -20 -4
-20 -8 0 -4 -14 -16 -31 -26 -16 -10 -46 -33 -65 -52 -19 -19 -38 -32 -43 -29
-5 3 -12 -9 -16 -26 -4 -18 -24 -47 -45 -66 -25 -24 -36 -41 -33 -54 5 -17 9
-16 48 11 55 38 65 38 65 0 0 -33 -21 -47 -90 -59 -28 -5 -36 -12 -38 -31 -2
-14 -8 -29 -13 -34 -5 -6 -9 -19 -9 -30 0 -15 7 -10 32 22 40 53 68 56 68 9 0
-21 -8 -41 -20 -52 -11 -10 -17 -22 -14 -26 3 -5 0 -9 -5 -9 -6 0 -11 -7 -11
-15 0 -8 4 -15 9 -15 14 0 32 26 23 35 -4 4 2 6 13 3 41 -7 25 -114 -27 -179
-16 -20 -31 -49 -34 -65 -3 -16 -14 -48 -24 -71 -11 -24 -20 -48 -20 -54 0 -9
-25 -78 -56 -154 -4 -11 -8 -24 -9 -30 -1 -5 -5 -21 -10 -35 -5 -14 -8 -33 -6
-42 1 -10 -3 -18 -8 -18 -18 0 -51 -39 -51 -59 0 -10 -6 -23 -12 -29 -16 -13
-14 -81 2 -111 10 -20 13 -21 28 -8 9 8 37 25 61 37 l44 22 28 -21 c15 -12 31
-21 34 -21 15 0 121 87 221 181 324 304 552 579 599 720 23 69 15 170 -18 236
-43 87 -48 92 -81 86 -23 -4 -38 2 -60 20 -28 24 -76 50 -139 76 -34 14 -170
12 -214 -2z m79 -49 c-10 -10 -4 -15 25 -24 l38 -12 -30 -2 c-16 -2 -46 -2
-65 -1 -25 1 -51 -8 -90 -33 -30 -19 -56 -33 -59 -31 -4 5 25 35 34 35 4 0 25
12 48 28 67 43 81 51 97 51 11 1 11 -2 2 -11z m114 -53 c43 -21 82 -64 66 -73
-8 -6 -3 -18 17 -43 16 -19 41 -57 56 -85 15 -27 39 -64 52 -82 22 -29 23 -36
13 -67 -6 -19 -15 -35 -19 -35 -4 0 -18 33 -32 73 -29 88 -81 168 -131 202
-28 19 -56 27 -111 31 -86 8 -133 -4 -168 -43 l-24 -26 25 7 c70 21 199 18
185 -4 -3 -5 1 -20 9 -32 26 -41 38 -116 26 -172 -7 -33 -7 -53 -1 -59 7 -7 7
-15 0 -24 -9 -10 -6 -13 11 -13 13 0 32 -8 42 -17 14 -13 21 -14 30 -5 14 14
57 15 77 3 12 -8 7 -20 -26 -63 -40 -51 -174 -186 -201 -202 -15 -9 -72 39
-72 59 0 6 -11 22 -24 35 -14 12 -28 37 -31 54 -12 60 -38 136 -46 136 -5 0
-9 -4 -9 -10 0 -5 -6 -10 -14 -10 -18 0 -33 44 -42 121 -6 51 -2 73 22 145 16
49 39 96 53 111 46 45 108 75 163 78 29 2 54 8 56 14 5 15 13 14 48 -4z m-193
-825 c-6 -6 -43 38 -43 52 0 5 11 -4 24 -19 13 -15 22 -30 19 -33z"/>
<path d="M2408 6623 c7 -3 16 -2 19 1 4 3 -2 6 -13 5 -11 0 -14 -3 -6 -6z"/>
<path d="M3381 6514 c0 -11 3 -14 6 -6 3 7 2 16 -1 19 -3 4 -6 -2 -5 -13z"/>
<path d="M3347 6385 c4 -47 28 -83 69 -105 38 -21 74 -31 74 -19 0 5 -7 9 -15
9 -32 0 -105 57 -105 83 0 7 -4 17 -9 23 -5 5 -11 18 -14 29 -2 11 -3 2 0 -20z"/>
<path d="M12011 6359 c-21 -8 -22 -13 -16 -47 10 -54 22 -61 39 -20 8 19 22
40 30 48 9 7 16 16 16 21 0 12 -38 10 -69 -2z"/>
<path d="M11832 6296 c-48 -18 -53 -26 -38 -68 17 -50 22 -54 30 -22 4 15 21
45 38 66 31 40 26 44 -30 24z"/>
<path d="M3513 6243 c9 -2 23 -2 30 0 6 3 -1 5 -18 5 -16 0 -22 -2 -12 -5z"/>
<path d="M3581 6226 c11 -9 69 -15 64 -6 -3 6 -20 10 -37 10 -17 0 -29 -2 -27
-4z"/>
<path d="M11603 6218 c-35 -12 -39 -21 -23 -64 l11 -27 16 24 c9 13 27 36 41
52 23 24 24 27 6 26 -10 -1 -34 -6 -51 -11z"/>
<path d="M3720 6194 c30 -7 123 -22 205 -34 83 -11 165 -23 183 -26 17 -3 32
-1 32 5 0 9 -21 12 -182 27 -35 3 -67 10 -73 15 -5 5 -33 9 -61 9 -29 0 -56 5
-59 10 -3 6 -27 10 -53 9 l-47 -1 55 -14z"/>
<path d="M11375 6138 c-11 -6 -21 -12 -23 -13 -1 -1 2 -15 8 -31 l11 -28 35
36 c19 20 34 39 34 42 0 10 -44 6 -65 -6z"/>
<path d="M4181 6126 c9 -8 99 -13 99 -5 0 5 -23 9 -52 9 -28 0 -49 -2 -47 -4z"/>
<path d="M4353 6103 c15 -2 37 -2 50 0 12 2 0 4 -28 4 -27 0 -38 -2 -22 -4z"/>
<path d="M7105 6092 c-60 -6 -135 -24 -135 -32 0 -5 -10 -10 -22 -12 -13 -2
-23 -10 -23 -18 0 -8 -9 -16 -20 -18 -11 -3 -24 -11 -28 -18 -5 -8 -12 -12
-17 -9 -5 3 -11 1 -15 -5 -3 -5 1 -10 11 -10 12 0 14 -3 5 -13 -8 -10 -7 -17
1 -25 18 -18 28 -14 28 11 1 25 22 57 39 57 6 0 11 -11 11 -25 0 -14 -4 -25
-10 -25 -5 0 -10 -14 -10 -31 l0 -31 40 35 c35 30 93 63 155 88 37 15 130 20
180 9 64 -13 115 -21 93 -14 -10 3 -18 10 -18 15 0 5 -9 9 -19 9 -23 0 -36 16
-21 25 22 14 9 26 -20 20 -19 -4 -36 -2 -45 5 -14 12 -99 18 -160 12z"/>
<path d="M4508 6083 c12 -2 32 -2 45 0 12 2 2 4 -23 4 -25 0 -35 -2 -22 -4z"/>
<path d="M4665 6055 c105 -19 405 -65 429 -65 44 0 -2 19 -59 24 -33 3 -88 10
-122 15 -35 6 -91 16 -125 22 -35 5 -92 12 -128 14 l-65 3 70 -13z"/>
<path d="M7375 6050 c-3 -5 1 -10 10 -10 9 0 13 5 10 10 -3 6 -8 10 -10 10 -2
0 -7 -4 -10 -10z"/>
<path d="M7415 6030 c-3 -5 1 -10 9 -10 9 0 16 -4 16 -10 0 -5 5 -10 10 -10
24 0 172 -151 201 -205 11 -20 15 -34 10 -30 -6 3 3 -30 19 -75 17 -45 30 -98
30 -117 0 -20 3 -33 7 -29 14 13 32 -117 32 -228 1 -101 -7 -153 -30 -198 -5
-10 -9 -25 -9 -33 0 -8 -4 -23 -9 -33 -5 -9 -19 -38 -30 -64 -38 -87 -110
-150 -216 -190 l-50 -19 53 5 c28 3 52 3 52 0 0 -3 -26 -17 -57 -32 -51 -23
-71 -26 -168 -27 -106 0 -112 1 -172 33 -75 41 -255 223 -238 240 4 4 11 -1
16 -10 16 -28 129 -132 175 -161 83 -51 137 -67 227 -65 l82 1 -80 7 c-44 4
-89 11 -100 15 -53 21 -165 93 -208 133 -45 43 -137 179 -137 205 0 7 -6 3
-12 -7 -8 -15 -8 -21 0 -24 7 -2 12 -15 12 -28 0 -13 5 -24 10 -24 6 0 10 -7
10 -15 0 -27 -16 -16 -30 20 -8 19 -16 35 -20 35 -19 0 -81 -220 -68 -244 5
-9 7 -25 3 -35 -4 -14 0 -21 15 -26 16 -5 18 -10 10 -20 -8 -10 -6 -15 9 -20
12 -3 21 -11 21 -17 0 -6 9 -8 19 -5 12 3 22 -1 25 -10 4 -9 13 -12 25 -8 11
3 22 1 25 -4 9 -14 70 -20 246 -24 155 -4 331 13 357 35 7 5 16 7 21 4 22 -13
152 142 189 224 26 60 33 82 33 105 0 34 50 150 74 170 7 6 21 48 33 95 18 72
19 97 12 160 -19 153 -68 290 -137 385 -28 40 -59 51 -89 32 -6 -4 -28 13 -49
36 -44 49 -143 127 -161 127 -6 0 -15 -4 -18 -10z"/>
<path d="M5141 5986 c10 -9 139 -14 139 -6 0 6 -32 10 -72 10 -39 0 -69 -2
-67 -4z"/>
<path d="M5398 5963 c28 -2 76 -2 105 0 28 2 5 3 -53 3 -58 0 -81 -1 -52 -3z"/>
<path d="M6701 5944 c-24 -14 -50 -32 -58 -40 -8 -8 -23 -19 -34 -25 -11 -5
-17 -14 -14 -19 6 -9 55 11 55 23 0 4 7 7 15 7 8 0 15 5 15 10 0 6 6 10 13 10
13 0 67 43 67 54 0 11 -13 6 -59 -20z"/>
<path d="M7058 5920 c-36 -11 -78 -40 -57 -40 8 0 19 4 25 8 10 9 76 30 114
35 14 3 7 5 -15 5 -22 0 -52 -3 -67 -8z"/>
<path d="M7343 5923 c9 -2 23 -2 30 0 6 3 -1 5 -18 5 -16 0 -22 -2 -12 -5z"/>
<path d="M7452 5865 c72 -48 96 -58 57 -24 -35 31 -96 69 -111 69 -7 0 17 -20
54 -45z"/>
<path d="M6429 5785 c-8 -9 -29 -23 -47 -33 -81 -45 -382 -313 -382 -341 0 -6
-3 -11 -8 -11 -4 0 -15 -15 -25 -32 -10 -18 -39 -56 -65 -83 -26 -28 -67 -75
-92 -105 -25 -30 -47 -57 -50 -60 -40 -37 -159 -223 -203 -320 -50 -107 -81
-230 -58 -230 6 0 11 6 11 14 0 28 77 203 124 282 71 120 119 181 330 423 26
31 147 156 269 278 121 123 218 225 216 228 -3 2 -12 -2 -20 -10z"/>
<path d="M6841 5694 c0 -11 3 -14 6 -6 3 7 2 16 -1 19 -3 4 -6 -2 -5 -13z"/>
<path d="M7660 5641 c0 -12 5 -21 10 -21 6 0 10 -9 10 -20 0 -11 5 -20 10 -20
6 0 10 9 10 20 0 11 -4 20 -10 20 -5 0 -10 6 -10 14 0 8 -4 18 -10 21 -5 3
-10 -3 -10 -14z"/>
<path d="M7450 5603 c0 -16 101 -123 116 -123 8 0 14 3 14 8 -1 20 -130 135
-130 115z"/>
<path d="M1367 5490 c-6 -17 -15 -101 -23 -237 -5 -76 -3 -97 10 -118 27 -41
79 -33 171 25 55 34 116 82 112 87 -2 2 -41 -12 -86 -32 -107 -45 -117 -45
-117 3 -2 72 -57 299 -67 272z"/>
<path d="M3633 5492 c-40 -2 -73 -5 -73 -8 0 -3 5 -14 11 -26 12 -22 0 -37
-54 -72 -51 -34 -26 -93 29 -68 28 14 29 11 8 -29 -15 -29 -15 -30 5 -20 11 6
42 36 68 67 26 31 60 70 75 88 30 33 36 62 16 67 -7 2 -46 3 -85 1z"/>
<path d="M7294 5461 c-23 -4 -57 -19 -75 -33 -19 -14 -44 -28 -56 -32 -38 -12
-26 -26 21 -26 24 0 46 -5 48 -10 2 -6 21 -13 43 -17 22 -3 48 -13 58 -21 16
-14 21 -14 40 -2 12 7 33 14 47 16 110 12 150 25 150 49 0 20 -12 25 -82 36
-35 6 -70 16 -78 23 -20 19 -67 25 -116 17z"/>
<path d="M6843 5329 c5 -101 14 -137 58 -226 41 -81 144 -190 209 -220 25 -11
73 -26 107 -33 55 -11 70 -11 125 5 67 19 120 48 157 89 29 31 20 34 -19 6
-95 -68 -223 -79 -331 -28 -152 70 -259 245 -281 457 -2 14 -9 26 -16 29 -11
3 -13 -13 -9 -79z"/>
<path d="M11955 5366 c-16 -8 -61 -29 -100 -46 -111 -51 -115 -53 -115 -65 0
-23 12 -21 108 25 53 26 107 50 120 54 13 4 22 15 22 27 0 22 3 22 -35 5z"/>
<path d="M8360 5339 c-45 -11 -89 -31 -110 -48 -30 -24 -35 -35 -38 -78 -4
-63 28 -107 83 -116 129 -21 425 160 381 232 -22 35 -200 41 -316 10z m164
-19 c-14 -14 -139 -40 -189 -40 l-40 0 30 15 c48 22 96 33 155 34 36 1 51 -2
44 -9z"/>
<path d="M1356 4923 c-9 -31 -10 -117 -3 -139 9 -26 61 -54 88 -47 22 6 22 7
10 31 -5 9 -18 37 -29 62 -10 25 -25 60 -33 78 -16 36 -25 40 -33 15z"/>
<path d="M7684 4727 c-17 -17 -47 -53 -68 -80 -31 -39 -142 -127 -160 -127 -3
0 -46 -29 -95 -64 -100 -70 -228 -136 -341 -176 -19 -7 -44 -16 -55 -20 -41
-17 -97 -32 -101 -27 -5 5 18 17 91 48 190 80 376 189 450 263 37 37 30 41
-17 8 -280 -193 -713 -343 -1098 -382 -47 -5 -7 -6 105 -3 99 2 196 9 215 14
19 5 53 9 74 9 38 0 39 0 21 -20 -18 -19 -17 -20 5 -20 36 0 257 56 355 90
153 54 295 130 390 209 75 64 196 191 230 244 43 65 43 82 -1 34z m-934 -527
c0 -5 -5 -10 -11 -10 -5 0 -7 5 -4 10 3 6 8 10 11 10 2 0 4 -4 4 -10z"/>
<path d="M1554 4735 c-21 -55 132 -292 277 -430 251 -238 561 -390 1154 -567
96 -28 116 -34 195 -57 19 -5 51 -14 70 -20 75 -21 108 -30 185 -51 44 -12 96
-26 115 -31 19 -6 51 -14 70 -19 19 -5 53 -14 75 -20 22 -6 56 -15 75 -20 19
-5 53 -14 75 -20 22 -6 63 -15 90 -21 197 -40 225 -44 225 -30 0 6 -15 11 -34
11 -19 0 -37 4 -40 9 -3 5 -20 11 -38 14 -18 3 -51 10 -73 17 -22 6 -51 14
-65 16 -14 3 -34 9 -45 13 -45 18 -93 31 -113 31 -11 0 -24 5 -27 10 -3 6 -19
10 -35 10 -16 0 -32 5 -35 10 -3 6 -17 10 -30 10 -13 0 -27 5 -30 10 -3 6 -19
10 -35 10 -16 0 -32 5 -36 12 -7 11 3 10 131 -8 17 -3 57 -7 89 -10 32 -3 66
-9 76 -14 15 -8 40 -12 164 -26 22 -2 45 -9 52 -15 8 -7 14 -7 19 1 4 7 11 8
18 2 14 -11 56 -21 109 -28 20 -2 56 -10 80 -18 24 -8 65 -17 93 -21 27 -4 61
-13 75 -20 14 -7 45 -15 70 -19 42 -6 146 -34 215 -57 17 -6 40 -12 52 -15 12
-2 34 -9 48 -14 15 -6 38 -10 53 -10 15 0 34 -5 42 -10 11 -7 -4 -10 -48 -10
-40 0 -61 4 -57 10 4 6 -18 10 -60 10 -42 0 -64 -4 -60 -10 3 -5 30 -10 59
-10 28 0 56 -4 61 -9 6 -5 37 -12 70 -15 33 -3 94 -10 135 -16 115 -17 330
-24 343 -11 6 6 21 11 33 11 26 0 71 49 80 87 5 17 -1 40 -17 71 -13 25 -32
61 -43 81 -61 120 -204 289 -273 323 -44 22 -77 29 -508 109 -209 38 -425 79
-480 90 -292 60 -637 138 -850 192 -55 15 -174 45 -265 67 -149 37 -199 50
-365 95 -45 12 -175 53 -340 106 -33 11 -73 23 -90 28 -166 50 -251 77 -310
98 -134 48 -274 92 -319 98 -38 6 -47 4 -52 -10z m1936 -1085 c0 -5 -6 -10
-14 -10 -8 0 -18 5 -21 10 -3 6 3 10 14 10 12 0 21 -4 21 -10z"/>
<path d="M1468 4607 c-7 -7 -29 -24 -48 -37 -19 -13 -37 -27 -40 -30 -3 -3
-21 -17 -40 -30 -19 -13 -42 -31 -50 -40 -8 -8 -31 -27 -52 -42 -20 -15 -42
-33 -50 -40 -7 -8 -42 -38 -78 -68 -84 -71 -333 -319 -390 -390 -25 -30 -47
-57 -50 -60 -33 -32 -200 -280 -221 -327 -8 -18 -17 -33 -21 -33 -5 0 -8 -7
-8 -15 0 -8 -9 -30 -19 -48 -12 -22 -16 -39 -10 -48 7 -11 9 -9 9 7 0 12 10
25 24 32 16 7 23 17 20 29 -3 14 7 24 44 41 26 12 53 22 60 22 7 0 12 10 13
23 0 12 3 16 6 10 7 -18 33 -16 33 2 0 21 30 55 59 66 19 8 21 12 11 24 -10
12 -9 15 9 15 21 0 25 8 22 43 -1 9 3 17 9 17 7 0 32 14 57 30 24 17 48 30 53
30 4 0 6 8 3 19 -3 12 2 20 16 24 22 5 30 27 10 27 -6 0 -4 7 5 15 8 8 22 15
30 15 9 0 16 8 16 18 0 19 32 52 72 73 12 7 29 21 36 31 7 10 17 16 22 13 16
-10 20 13 5 25 -17 14 -3 40 22 40 8 0 12 4 9 8 -3 5 8 16 25 26 16 9 29 22
29 28 0 6 21 31 46 56 25 25 48 58 51 73 4 19 10 25 23 22 11 -3 19 2 23 17 3
12 15 24 27 27 13 4 23 16 27 34 3 16 11 29 18 29 6 0 28 18 48 40 19 22 40
40 46 40 6 0 11 8 11 19 0 10 15 33 34 51 19 19 32 40 29 47 -6 16 -18 17 -35
0z"/>
<path d="M5381 4524 c0 -11 3 -14 6 -6 3 7 2 16 -1 19 -3 4 -6 -2 -5 -13z"/>
<path d="M5357 4469 c-4 -13 -7 -48 -7 -77 0 -62 23 -112 72 -159 41 -39 152
-96 176 -90 13 4 11 5 -5 6 -13 0 -23 6 -23 11 0 6 -6 10 -13 10 -24 0 -135
109 -156 153 -12 24 -21 63 -22 88 0 24 -4 53 -8 63 -7 18 -8 18 -14 -5z"/>
<path d="M10986 4438 c-13 -83 -17 -128 -11 -128 9 0 115 83 115 90 -1 5 -76
61 -92 68 -4 2 -9 -12 -12 -30z"/>
<path d="M5638 4123 c7 -3 16 -2 19 1 4 3 -2 6 -13 5 -11 0 -14 -3 -6 -6z"/>
<path d="M5708 4103 c7 -3 16 -2 19 1 4 3 -2 6 -13 5 -11 0 -14 -3 -6 -6z"/>
<path d="M5818 4083 c12 -2 30 -2 40 0 9 3 -1 5 -23 4 -22 0 -30 -2 -17 -4z"/>
<path d="M6185 3924 c-98 -23 -175 -66 -175 -100 0 -6 12 -17 28 -23 37 -15
91 -111 92 -161 0 -9 14 -31 31 -50 l30 -35 -4 105 c-5 116 4 150 38 150 34 0
56 -33 76 -116 10 -42 20 -78 22 -80 2 -2 26 3 53 11 27 8 50 15 52 15 1 0 2
-7 2 -15 0 -8 4 -15 9 -15 4 0 11 27 15 60 7 60 14 68 50 54 8 -3 18 -22 22
-41 6 -30 2 -39 -27 -69 -34 -36 -54 -43 -62 -21 -2 7 -15 0 -34 -20 -28 -30
-36 -33 -92 -33 -80 0 -78 -16 3 -25 74 -7 124 0 185 28 120 56 104 212 -32
306 -73 49 -221 89 -282 75z m243 -117 c2 -10 -3 -17 -12 -17 -18 0 -29 16
-21 31 9 14 29 6 33 -14z"/>
<path d="M4368 3413 c6 -2 18 -2 25 0 6 3 1 5 -13 5 -14 0 -19 -2 -12 -5z"/>
<path d="M4483 3389 c14 -8 22 -8 30 0 8 8 3 11 -18 11 -26 -1 -28 -2 -12 -11z"/>
<path d="M371 3374 c0 -11 3 -14 6 -6 3 7 2 16 -1 19 -3 4 -6 -2 -5 -13z"/>
<path d="M4580 3370 c20 -13 80 -13 80 0 0 6 -21 10 -47 10 -35 0 -44 -3 -33
-10z"/>
<path d="M351 3324 c0 -11 3 -14 6 -6 3 7 2 16 -1 19 -3 4 -6 -2 -5 -13z"/>
<path d="M12825 2580 c-3 -5 -1 -10 4 -10 6 0 11 5 11 10 0 6 -2 10 -4 10 -3
0 -8 -4 -11 -10z"/>
<path d="M12635 2470 c-10 -11 -15 -20 -11 -20 11 0 39 30 34 36 -3 2 -13 -5
-23 -16z"/>
<path d="M12172 2226 c-18 -6 -30 -15 -26 -19 4 -4 -2 -7 -14 -7 -12 0 -22 -4
-22 -9 0 -5 -10 -11 -22 -13 -20 -3 -20 -4 -6 -10 11 -4 24 -1 33 8 9 9 23 13
32 10 8 -4 21 -3 27 2 6 5 31 14 56 22 25 7 49 17 55 22 14 12 -75 8 -113 -6z"/>
<path d="M12010 2156 c0 -9 30 -14 35 -6 4 6 -3 10 -14 10 -12 0 -21 -2 -21
-4z"/>
<path d="M11965 2130 c4 -6 11 -8 16 -5 14 9 11 15 -7 15 -8 0 -12 -5 -9 -10z"/>
<path d="M11908 2113 c7 -3 16 -2 19 1 4 3 -2 6 -13 5 -11 0 -14 -3 -6 -6z"/>
</g>
</svg>
