<?xml version="1.0" standalone="no"?>
<!DOCTYPE svg PUBLIC "-//W3C//DTD SVG 20010904//EN"
 "http://www.w3.org/TR/2001/REC-SVG-20010904/DTD/svg10.dtd">
<svg version="1.0" xmlns="http://www.w3.org/2000/svg"
 width="1114.000000pt" height="2104.000000pt" viewBox="0 0 1114.000000 2104.000000"
 preserveAspectRatio="xMidYMid meet">
<metadata>
Created by potrace 1.13, written by Peter Selinger 2001-2015
</metadata>
<g transform="translate(0.000000,2104.000000) scale(0.100000,-0.100000)"
fill="#000000" stroke="none">
<path d="M6420 16570 c-157 -10 -287 -30 -515 -81 -22 -5 -62 -13 -90 -18 -27
-5 -62 -12 -76 -16 -19 -5 -49 5 -112 34 -137 65 -214 81 -409 81 -91 0 -190
-5 -220 -11 -29 -6 -78 -15 -108 -21 -122 -23 -417 -123 -539 -182 -33 -16
-93 -31 -156 -41 -262 -39 -268 -42 -515 -245 -145 -119 -450 -315 -530 -341
-99 -33 -273 -192 -337 -309 -11 -19 -35 -43 -55 -53 -31 -15 -39 -27 -52 -72
-9 -29 -16 -62 -16 -73 0 -12 -22 -46 -48 -76 -27 -30 -55 -74 -62 -98 -10
-32 -34 -62 -91 -115 -92 -87 -102 -109 -145 -331 -3 -12 -14 -30 -26 -40 -71
-57 -108 -98 -119 -130 -6 -20 -24 -64 -39 -97 -48 -106 -87 -235 -92 -305
l-3 -35 -65 -8 c-83 -10 -122 -33 -131 -75 -3 -17 -21 -48 -38 -68 -30 -34
-32 -40 -26 -84 5 -37 2 -57 -14 -91 -12 -23 -21 -56 -21 -73 0 -18 -15 -56
-36 -89 -20 -33 -40 -73 -45 -91 -4 -17 -12 -47 -18 -66 -48 -174 -61 -255
-59 -363 l3 -97 -33 -31 c-50 -47 -45 -64 56 -223 26 -41 29 -52 20 -70 -14
-26 -38 -45 -57 -46 -8 0 -52 -18 -98 -40 -145 -71 -250 -191 -282 -324 -7
-28 -20 -57 -29 -65 -26 -25 -122 -142 -173 -212 -82 -114 -89 -133 -89 -263
0 -63 4 -117 9 -120 4 -3 12 -29 16 -58 16 -116 24 -165 35 -213 6 -27 12
-115 14 -195 2 -80 8 -156 14 -170 5 -14 16 -45 23 -70 7 -25 16 -49 21 -54 4
-6 8 -16 8 -23 0 -7 14 -34 30 -60 26 -41 30 -56 30 -117 0 -38 5 -86 12 -105
29 -83 127 -201 180 -215 13 -4 41 -11 63 -17 22 -6 48 -15 57 -20 10 -5 27
-9 38 -9 11 0 28 -4 38 -9 9 -5 44 -15 77 -21 33 -7 70 -16 83 -21 13 -5 36
-9 53 -9 58 0 83 -23 113 -102 63 -164 82 -195 181 -299 l67 -70 -11 -102
c-29 -275 -35 -299 -85 -346 -56 -53 4 -41 64 13 30 26 50 33 50 17 0 -4 -17
-42 -39 -84 -21 -41 -41 -90 -44 -109 -3 -18 -11 -54 -16 -80 -25 -109 -32
-145 -41 -188 -5 -25 -12 -57 -15 -71 -9 -34 6 -43 31 -21 17 15 104 88 144
119 70 56 94 73 98 69 2 -3 -13 -27 -34 -53 -46 -57 -64 -87 -64 -108 0 -8 -4
-23 -9 -33 -12 -23 -26 -60 -41 -102 -14 -40 -23 -64 -38 -100 -5 -14 -15 -41
-22 -60 -15 -42 -29 -79 -41 -102 -5 -10 -9 -27 -9 -37 0 -11 -5 -23 -10 -26
-14 -8 -13 -45 1 -45 6 0 60 46 120 101 60 56 109 99 109 96 0 -4 -5 -19 -11
-34 -6 -15 -15 -37 -19 -48 -4 -11 -13 -32 -20 -47 -27 -57 -1 -49 145 42 71
44 144 82 271 142 12 5 32 8 45 6 22 -3 20 -7 -36 -73 -32 -38 -90 -100 -128
-136 -72 -69 -83 -100 -26 -72 72 36 155 44 272 28 l49 -7 -39 -26 c-96 -64
-238 -195 -283 -262 -13 -19 -27 -37 -30 -40 -3 -3 -11 -16 -19 -30 -45 -78
-71 -142 -71 -177 0 -12 -5 -25 -10 -28 -14 -9 -12 -45 3 -45 6 0 30 20 52 45
47 53 60 57 50 13 -10 -45 -10 -102 1 -243 5 -66 13 -120 19 -120 5 0 13 20
18 45 23 116 25 110 26 -65 1 -189 7 -255 23 -255 5 0 33 20 61 43 54 45 141
107 151 107 9 0 7 -28 -3 -48 -5 -9 -23 -46 -40 -81 l-31 -64 0 -183 c0 -150
3 -184 14 -184 7 0 42 28 77 63 72 70 129 120 129 112 0 -3 -9 -24 -19 -48
-31 -69 -32 -77 -13 -70 9 4 19 9 22 13 15 18 71 50 88 50 25 0 33 -43 21
-125 -5 -33 -6 -77 -2 -97 4 -31 10 -38 28 -38 16 0 28 12 45 48 12 26 27 56
33 67 6 11 20 39 32 62 35 67 139 222 153 228 11 4 13 -6 7 -52 -3 -32 -8
-118 -11 -192 -4 -116 -3 -136 12 -152 22 -25 28 -24 59 8 25 27 25 27 25 5 0
-12 4 -30 9 -40 5 -9 16 -33 25 -54 36 -83 160 -218 170 -186 3 7 7 83 11 168
9 234 23 336 52 385 11 19 12 19 31 2 17 -16 67 -109 95 -177 23 -57 26 -66
32 -95 3 -16 10 -47 15 -67 6 -21 15 -57 20 -80 6 -24 15 -61 21 -83 6 -22 13
-52 16 -68 8 -40 20 -42 37 -5 17 38 22 66 39 202 13 97 14 99 52 132 55 47
91 64 104 51 13 -13 14 -129 2 -171 -31 -102 -34 -117 -24 -127 7 -7 27 17 64
72 29 45 58 87 64 93 5 6 22 27 36 46 34 45 85 100 94 100 10 0 -4 -61 -27
-110 -11 -25 -24 -55 -29 -67 -5 -13 -13 -33 -18 -45 -5 -13 -15 -41 -22 -63
-6 -22 -15 -48 -20 -57 -12 -23 -16 -149 -5 -166 14 -24 12 -28 176 313 40 83
96 200 126 260 l54 110 0 -110 c1 -249 62 -326 137 -174 17 35 37 82 44 104 7
22 19 47 26 55 11 12 13 10 13 -12 0 -15 4 -29 9 -32 18 -11 37 -171 23 -189
-24 -29 -51 -87 -43 -92 21 -12 220 221 221 260 1 27 23 55 44 55 21 0 46 -23
46 -44 0 -8 5 -18 10 -21 6 -3 10 -16 10 -27 0 -12 5 -37 10 -55 6 -18 15 -50
21 -70 7 -21 25 -56 40 -77 16 -22 29 -51 29 -65 0 -25 15 -79 33 -118 6 -14
19 -23 32 -23 28 0 41 43 51 165 10 119 9 165 -4 255 -20 129 -24 150 -33 156
-5 3 -9 16 -9 29 0 13 -4 27 -10 30 -5 3 -10 14 -10 23 0 9 -9 28 -20 42 -11
14 -20 33 -20 43 0 15 7 13 39 -13 35 -28 41 -30 60 -18 21 12 22 19 17 103
-2 50 -7 107 -11 128 -4 20 -4 37 -1 37 4 0 46 -27 95 -59 101 -68 136 -79
136 -42 0 18 -6 24 -26 27 -15 1 -79 37 -143 80 -64 42 -118 75 -121 72 -3 -2
0 -27 6 -54 18 -86 29 -148 35 -201 5 -43 4 -53 -9 -53 -17 0 -75 61 -103 108
-29 49 -65 40 -40 -10 8 -15 17 -46 21 -70 4 -24 18 -68 32 -98 69 -152 87
-246 81 -436 -5 -202 -23 -225 -47 -59 -8 60 -16 75 -40 75 -19 0 -25 17 -38
103 -3 20 -9 40 -14 43 -5 3 -9 14 -9 25 0 39 -61 119 -91 119 -21 0 -79 -56
-79 -76 0 -25 -68 -129 -95 -146 -6 -4 -10 34 -11 105 -2 120 -11 194 -25 203
-5 3 -9 18 -9 33 0 15 -4 31 -8 37 -5 5 -15 29 -22 54 -32 102 -38 101 -44 -6
-6 -127 -14 -194 -27 -220 -6 -11 -9 -24 -8 -30 5 -16 -13 -67 -51 -147 -20
-40 -26 -46 -37 -34 -10 10 -15 65 -20 214 -5 181 -8 200 -22 191 -9 -5 -26
-29 -37 -51 -45 -87 -184 -367 -238 -477 -31 -63 -56 -105 -56 -93 0 12 5 35
11 50 6 15 15 37 19 48 4 11 12 32 19 48 6 15 15 37 20 50 5 12 16 39 25 59
22 49 30 94 21 115 -4 10 -8 63 -9 118 -3 107 -16 183 -36 195 -6 4 -11 13
-10 21 1 8 1 21 0 29 -2 17 -27 -87 -40 -170 -9 -58 -21 -109 -41 -175 -6 -22
-12 -55 -12 -73 0 -24 -4 -31 -14 -28 -9 4 -11 1 -7 -5 4 -6 2 -14 -3 -18 -5
-3 -22 -24 -37 -46 -22 -32 -27 -35 -22 -15 17 71 18 100 1 144 -12 30 -24 46
-39 49 -20 4 -20 4 2 6 22 1 22 3 21 129 0 70 -3 120 -6 112 -15 -42 -87 -185
-94 -188 -5 -2 -9 -9 -9 -15 0 -7 -9 -23 -20 -37 -24 -30 -25 -40 -5 -40 8 0
15 5 15 10 0 6 5 10 11 10 7 0 -18 -28 -54 -62 l-66 -63 6 -48 c3 -26 0 -75
-8 -110 -13 -61 -13 -62 -21 -27 -4 19 -12 54 -17 78 -6 23 -15 59 -20 80 -4
20 -18 64 -31 97 -12 33 -22 67 -22 75 0 8 -7 22 -15 31 -7 9 -11 24 -7 33 4
11 2 16 -7 14 -9 -2 -13 5 -12 19 2 14 -2 22 -10 20 -6 -1 -11 6 -11 15 1 10
-4 14 -12 11 -8 -3 -14 0 -14 6 0 6 4 11 10 11 5 0 2 17 -7 37 -8 21 -19 47
-23 58 -18 48 -29 69 -29 58 -1 -17 -19 -16 -37 1 -19 19 -19 76 0 76 10 0 16
-14 18 -42 l3 -43 6 39 c3 26 1 43 -9 53 -8 8 -12 25 -9 39 2 13 1 27 -3 29
-18 11 -32 -30 -34 -102 -2 -43 -8 -89 -15 -101 -8 -16 -12 -65 -12 -145 1
-67 -1 -207 -4 -310 l-6 -188 -34 38 c-19 21 -40 49 -47 63 -7 14 -19 36 -28
50 -21 33 -39 91 -48 160 -9 70 -28 72 -51 6 -28 -82 -41 -71 -41 38 0 52 4
97 9 101 5 3 11 -3 14 -12 2 -10 3 30 2 88 -1 58 -5 111 -9 117 -13 21 -41 13
-73 -20 -57 -61 -165 -235 -206 -333 l-17 -40 5 50 c3 28 9 82 13 120 5 54 14
81 37 115 56 83 78 149 92 273 5 49 -4 59 -28 31 -16 -19 -39 -82 -39 -107 0
-9 -4 -25 -9 -35 -5 -9 -15 -30 -22 -47 -8 -16 -29 -49 -48 -72 -26 -34 -30
-43 -17 -43 10 0 14 -4 11 -10 -3 -6 -19 -10 -35 -10 -16 0 -32 -4 -35 -10
-12 -19 -25 -10 -25 16 0 15 -8 32 -17 39 -14 11 -15 17 -6 36 6 13 14 38 17
54 3 17 8 46 11 65 4 19 10 44 15 55 5 11 11 32 14 48 3 15 9 39 12 55 3 15
-37 -58 -90 -163 -52 -104 -93 -192 -91 -195 2 -3 -12 -23 -31 -45 l-34 -40 0
151 c0 148 1 154 28 206 31 59 45 109 36 133 -4 9 -19 15 -40 15 -19 0 -34 5
-34 10 0 6 23 10 50 10 41 0 50 3 50 18 0 10 4 22 9 28 14 15 23 64 11 64 -20
0 -135 -112 -135 -131 0 -8 -32 -39 -42 -39 -4 0 -26 -17 -48 -37 l-40 -36 -6
159 c-7 198 -16 251 -39 257 -10 3 -24 0 -30 -7 -9 -8 -11 13 -10 89 1 55 1
107 1 116 -1 24 -24 30 -55 14 -22 -12 -26 -12 -26 1 0 8 4 22 9 32 5 9 16 32
23 50 7 17 16 32 20 32 5 0 8 6 8 13 0 7 8 22 18 33 9 10 29 35 43 54 37 50
76 88 139 140 30 25 57 47 60 51 6 6 85 58 115 75 11 6 20 20 20 30 0 17 -9
19 -70 21 -38 1 -107 6 -152 10 l-82 8 64 70 c35 38 73 86 84 106 20 35 20 38
5 54 -13 12 -26 15 -53 10 -38 -7 -220 -93 -306 -145 -65 -40 -75 -44 -82 -36
-4 3 -2 16 4 29 6 12 17 38 24 57 7 19 21 44 31 54 9 10 15 23 12 28 -6 10
-41 11 -46 1 -1 -5 -32 -33 -68 -63 -36 -30 -80 -70 -98 -88 -39 -38 -48 -37
-31 4 19 47 26 67 39 104 15 42 29 79 41 102 5 10 9 25 9 33 0 8 5 24 10 35 6
11 15 29 20 40 6 11 10 29 10 39 0 11 5 23 10 26 5 3 10 13 10 21 0 8 12 28
27 45 37 41 83 111 83 127 0 28 -32 22 -92 -19 -35 -23 -65 -45 -68 -48 -3 -4
-21 -18 -40 -32 -19 -15 -46 -36 -59 -48 -30 -27 -35 -26 -26 2 9 29 31 132
53 247 4 25 25 79 45 120 46 95 54 131 32 150 -14 11 -20 12 -37 1 -19 -12
-20 -11 -14 16 8 31 22 138 32 251 l7 74 81 -80 c112 -110 171 -152 212 -152
30 0 34 3 34 25 0 14 -12 49 -26 78 -15 29 -35 75 -44 102 -14 38 -20 46 -25
33 -5 -12 9 -51 40 -114 52 -107 50 -127 -7 -100 -91 43 -468 426 -468 475 0
6 -4 19 -9 29 -5 9 -13 28 -18 42 -18 44 -35 84 -44 102 -14 28 -11 41 8 33
10 -4 37 -12 61 -16 23 -5 62 -13 87 -19 83 -18 130 -28 170 -36 57 -10 75
-21 75 -49 0 -13 5 -27 10 -30 6 -3 10 -16 10 -28 0 -12 7 -35 15 -51 8 -15
15 -42 16 -60 l0 -31 16 32 c13 26 14 37 5 55 -16 32 -42 110 -42 127 0 10 12
4 33 -15 17 -17 44 -38 59 -47 40 -25 38 -40 -14 -98 -20 -21 -23 -39 -9 -39
5 0 20 17 32 38 13 20 27 40 32 43 6 4 25 -9 44 -28 40 -39 86 -43 91 -8 2 18
2 18 -8 3 -6 -10 -17 -18 -25 -18 -21 0 -95 76 -95 98 0 23 25 48 34 33 4 -5
26 -13 50 -16 40 -6 45 -10 50 -41 5 -22 11 -31 20 -28 21 8 36 -49 36 -138 0
-84 -27 -229 -60 -318 -11 -30 -20 -58 -20 -62 0 -15 23 -8 55 16 47 36 158
269 187 392 10 42 17 54 32 54 15 0 14 4 -10 23 -43 33 -73 70 -74 90 0 20 16
21 71 5 31 -10 46 -21 57 -45 9 -18 22 -33 30 -33 7 0 12 3 10 8 -2 4 -10 19
-18 35 -12 25 -11 29 6 42 17 12 22 12 44 -3 14 -9 42 -24 63 -34 28 -14 37
-25 38 -46 2 -23 2 -24 6 -4 2 12 9 22 14 22 5 0 9 11 9 24 0 37 114 126 134
105 2 -2 11 -46 20 -98 29 -169 18 -209 -35 -133 -14 20 -40 45 -56 54 l-31
18 14 -38 c7 -20 13 -59 14 -86 0 -28 4 -100 10 -160 43 -499 38 -747 -18
-865 l-17 -36 -5 36 c-8 46 -42 102 -74 118 -21 12 -31 10 -78 -12 -78 -37
-85 -38 -109 -18 l-22 18 31 21 c16 12 33 22 36 22 4 0 18 7 31 16 l25 16 -25
30 c-14 16 -25 35 -25 43 0 7 -7 18 -15 25 -13 11 -27 5 -84 -33 -37 -25 -79
-47 -91 -49 -13 -1 -25 -9 -28 -17 -4 -11 2 -12 23 -7 24 6 34 0 83 -52 32
-33 78 -76 103 -96 111 -88 343 -176 533 -203 22 -3 48 -13 58 -23 19 -18 19
-19 -1 -62 -28 -62 -45 -75 -82 -61 -23 9 -29 9 -29 -3 0 -8 8 -14 19 -14 10
0 30 -11 45 -25 24 -23 26 -23 26 -4 0 25 27 36 51 21 11 -7 29 -18 41 -24 13
-7 28 -20 35 -28 13 -15 14 -13 16 30 1 15 9 26 19 28 21 4 108 -54 108 -71 0
-54 -91 -81 -110 -32 -12 32 -25 32 -46 0 -22 -34 -81 -36 -93 -3 l-8 22 -12
-22 c-18 -33 -73 -27 -81 8 -5 19 -7 21 -12 9 -9 -22 -56 -30 -74 -12 -8 8
-14 24 -15 36 l0 22 -9 -22 c-11 -27 -60 -38 -136 -30 -84 9 -107 26 -240 190
-8 9 -14 21 -14 25 0 5 -8 17 -17 28 -10 10 -25 32 -33 47 -8 16 -16 23 -18
17 -3 -7 -1 -15 4 -19 5 -3 15 -18 23 -33 8 -16 18 -28 23 -28 4 0 8 -5 8 -10
0 -6 12 -29 27 -51 l26 -40 -20 -42 c-36 -74 -48 -140 -33 -176 49 -119 305
-197 635 -194 94 1 298 5 455 8 280 7 317 5 557 -27 141 -19 297 19 418 102
160 110 355 393 490 713 128 304 344 1010 349 1136 l1 46 -195 98 c-107 53
-202 96 -210 95 -8 -1 -49 16 -90 38 -41 21 -79 41 -85 43 -5 2 -35 15 -65 29
-55 24 -108 47 -145 62 -86 36 -105 45 -105 52 0 4 -8 8 -19 8 -10 0 -24 6
-30 14 -8 10 -21 12 -46 6 -46 -10 -165 -67 -165 -78 0 -10 44 -32 65 -32 17
0 249 -118 306 -157 24 -16 56 -35 72 -42 15 -8 27 -18 27 -23 0 -4 5 -8 11
-8 6 0 32 -17 58 -38 25 -21 66 -52 91 -69 52 -35 173 -144 167 -150 -6 -6
-52 14 -68 29 -8 8 -42 33 -76 56 -34 23 -65 46 -68 52 -13 21 -25 9 -25 -24
0 -19 -4 -38 -10 -41 -6 -4 -10 13 -10 44 0 29 -5 51 -10 51 -6 0 -51 27 -100
60 -49 33 -94 60 -100 60 -5 0 -10 4 -10 9 0 5 -8 11 -17 14 -10 4 -38 18 -63
33 -25 15 -100 55 -167 90 l-121 63 -47 -35 c-25 -20 -44 -41 -42 -47 3 -10
59 -44 135 -83 17 -9 32 -20 32 -25 0 -5 5 -9 11 -9 19 0 162 -121 271 -230
l108 -107 47 12 c41 11 48 16 56 46 5 19 12 28 14 21 10 -27 -17 -217 -48
-337 -6 -22 -15 -58 -21 -80 -11 -44 -13 -49 -53 -148 -36 -89 -54 -110 -128
-149 -35 -19 -92 -63 -132 -103 -60 -60 -74 -80 -94 -140 -29 -88 -67 -143
-122 -179 -37 -25 -49 -28 -98 -23 -31 2 -64 8 -73 12 -14 5 -18 2 -18 -13 0
-12 5 -24 10 -27 6 -3 10 -17 10 -30 0 -13 4 -27 10 -30 6 -3 10 -17 10 -30 0
-13 5 -27 10 -30 6 -3 10 -21 10 -39 0 -17 4 -36 9 -42 5 -5 11 -38 14 -74 3
-36 9 -76 12 -90 8 -32 -35 -80 -71 -80 -12 0 -26 -4 -29 -10 -3 -6 -53 -10
-113 -10 -105 0 -108 1 -144 30 -52 43 -55 61 -19 114 17 25 31 49 31 55 0 6
5 11 10 11 6 0 10 7 10 15 0 8 4 23 9 33 20 39 41 97 59 167 6 22 14 51 18 64
6 23 6 23 -52 17 -33 -3 -88 -11 -124 -17 -86 -14 -122 -14 -200 0 -36 7 -82
14 -102 17 -27 4 -45 16 -65 41 -31 38 -74 110 -99 163 -9 19 -21 46 -28 59
-7 16 -10 73 -8 162 1 86 -1 140 -8 144 -5 3 -10 17 -10 31 0 13 -4 32 -9 42
-21 41 -30 70 -36 116 -4 27 -9 54 -12 62 -3 9 17 19 64 33 98 29 123 30 137
6 6 -11 13 -22 16 -25 3 -3 11 -15 18 -27 6 -13 18 -33 25 -45 6 -13 14 -25
17 -28 3 -3 12 -18 20 -35 8 -16 17 -32 20 -35 3 -3 12 -18 20 -35 8 -16 29
-46 47 -65 31 -34 32 -34 52 -16 23 20 27 36 11 36 -5 0 -10 -7 -10 -15 0 -22
-38 -18 -45 5 -3 11 -11 20 -16 20 -5 0 -9 7 -9 15 0 8 -4 15 -8 15 -5 0 -14
16 -22 35 -8 19 -17 35 -22 35 -4 0 -8 9 -8 20 0 11 -4 20 -10 20 -5 0 -10 7
-10 15 0 8 -3 15 -8 15 -4 0 -13 15 -21 33 -8 17 -17 34 -20 37 -3 3 -15 23
-27 45 -70 133 -214 366 -265 426 -40 48 -48 68 -26 70 6 0 74 0 150 -1 90 -1
137 2 137 9 0 19 -52 24 -194 17 -168 -9 -303 -21 -371 -36 -27 -5 -75 -15
-105 -21 -30 -6 -173 -13 -318 -16 l-263 -4 -69 51 c-185 137 -273 313 -211
422 59 104 114 193 121 196 5 2 19 19 30 37 30 48 15 72 -48 80 -26 3 -57 10
-70 16 -28 11 -111 11 -170 0 -109 -21 -29 68 88 98 25 6 94 17 154 25 120 16
184 42 253 101 78 67 153 189 194 318 24 75 104 220 142 259 24 24 26 29 12
34 -29 12 -92 -65 -155 -190 -45 -89 -206 -206 -284 -206 -38 0 -163 40 -255
81 -41 19 -45 19 -79 3 -54 -26 -76 -30 -292 -64 -30 -5 -80 -14 -110 -19
-120 -23 -197 -25 -244 -7 -39 15 -45 21 -55 62 -6 25 -9 50 -5 55 3 6 10 34
15 62 26 160 23 152 55 122 15 -14 33 -25 40 -25 8 0 14 -4 14 -10 0 -5 9 -10
20 -10 11 0 20 -4 20 -10 0 -5 7 -10 15 -10 8 0 23 -4 33 -9 9 -5 42 -14 72
-20 91 -19 222 14 320 80 71 48 128 98 113 99 -7 0 -13 -4 -13 -10 0 -5 -9
-10 -20 -10 -11 0 -20 -5 -20 -10 0 -6 -11 1 -25 15 -30 30 -29 29 -49 9 -9
-8 -16 -11 -16 -5 0 6 -21 11 -50 11 -27 0 -50 5 -50 10 0 6 -7 10 -15 10 -20
0 -65 45 -65 65 0 8 -4 15 -10 15 -5 0 -10 7 -10 16 0 9 -10 25 -21 35 -15 13
-20 26 -17 44 4 17 1 25 -8 25 -9 0 -14 11 -14 30 0 17 -4 30 -10 30 -6 0 -10
35 -10 85 0 66 3 85 14 85 11 0 12 9 4 44 -6 30 -6 51 1 65 6 11 12 44 12 73
1 29 3 45 6 36 6 -22 19 -23 27 -3 3 8 1 15 -4 15 -6 0 -10 21 -9 48 1 34 3
40 8 23 l6 -24 12 26 c8 16 9 29 3 32 -19 12 -10 31 23 49 17 10 79 66 135
123 57 58 106 103 108 100 2 -2 -1 -18 -7 -35 -12 -35 -9 -97 6 -96 6 0 11 9
13 20 3 19 9 35 34 92 15 32 82 135 112 170 38 45 132 98 195 112 63 13 76 24
41 35 -30 10 -52 48 -44 79 6 25 44 64 94 97 l24 15 -20 27 c-24 34 -30 33
-49 -3 -8 -16 -35 -51 -58 -78 l-43 -48 -40 23 c-21 13 -46 26 -54 30 -27 12
-104 68 -137 100 -32 31 -46 62 -21 47 8 -5 9 -2 4 12 -21 54 -45 124 -56 167
-16 61 -76 107 -139 107 -45 0 -50 6 -23 26 16 12 16 13 -1 20 -17 6 -17 7 -1
26 19 21 24 40 28 108 2 41 22 90 37 90 3 0 12 19 19 43 34 106 79 102 80 -8
0 -22 6 -50 13 -62 25 -44 170 -133 183 -112 3 6 2 14 -2 18 -5 4 -30 24 -56
45 -57 45 -58 79 -1 40 20 -13 44 -24 55 -24 18 0 17 2 -4 30 -13 19 -24 53
-29 91 -4 34 -14 68 -24 79 -34 38 -1 167 92 357 l54 113 72 35 c40 19 105 42
145 50 77 16 144 20 127 7 -18 -12 -36 -132 -34 -227 2 -104 -10 -146 -73
-257 -23 -40 -59 -110 -81 -156 l-40 -83 13 -105 c7 -58 9 -108 6 -112 -14
-14 -27 25 -25 78 1 30 -3 68 -9 83 -7 16 -12 41 -12 55 0 15 -6 36 -14 47
-24 35 -39 129 -34 218 4 74 10 95 46 172 23 48 42 93 42 100 0 25 -33 26 -57
3 -84 -80 -92 -92 -98 -142 -4 -28 -14 -64 -22 -80 -8 -16 -13 -41 -9 -57 3
-17 0 -32 -9 -39 -13 -10 -13 -16 0 -41 8 -15 15 -40 15 -54 0 -15 9 -39 21
-53 12 -16 16 -28 10 -30 -22 -7 -10 -29 29 -52 44 -28 42 -24 66 -135 9 -44
21 -86 27 -93 6 -8 31 -23 56 -35 49 -22 111 -62 150 -96 13 -12 28 -21 33
-21 20 0 -23 149 -73 253 -10 22 -10 32 -1 47 7 11 12 35 12 54 0 19 4 45 9
58 5 13 14 41 21 63 7 22 22 60 32 85 35 79 60 135 69 152 5 10 9 31 9 48 0
35 8 37 43 10 14 -11 27 -20 30 -20 2 0 5 48 6 106 1 59 7 116 13 128 14 28
78 103 166 196 87 91 90 105 25 95 -27 -4 -55 -10 -63 -15 -8 -4 -48 -10 -87
-12 -75 -5 -86 0 -60 32 39 49 232 166 300 184 14 3 32 8 40 12 9 3 16 -3 20
-15 6 -26 19 -26 111 -1 50 13 122 21 232 25 147 6 162 8 196 31 21 13 48 25
60 27 19 2 23 -3 23 -25 -1 -35 11 -35 37 -3 19 25 38 33 38 17 0 -5 -28 -38
-62 -75 -54 -57 -71 -68 -122 -82 -51 -14 -70 -27 -126 -83 -83 -85 -127 -151
-218 -332 -40 -79 -84 -157 -99 -172 -15 -15 -81 -55 -148 -87 -67 -33 -137
-72 -154 -87 -32 -26 -151 -194 -151 -212 0 -5 -9 -17 -20 -27 -11 -10 -20
-22 -20 -27 0 -5 -9 -18 -20 -30 -20 -21 -27 -48 -13 -48 4 0 79 74 167 163
171 174 271 267 287 267 25 0 -9 -47 -87 -122 -124 -119 -194 -239 -194 -330
0 -15 -9 -50 -21 -76 -12 -26 -26 -58 -31 -72 -6 -14 -14 -32 -18 -40 -4 -9
-10 -31 -14 -50 -3 -19 -3 -28 1 -20 3 8 9 17 14 20 4 3 32 52 62 110 78 152
133 251 209 382 37 65 89 110 103 89 3 -5 -2 -56 -10 -113 -34 -228 -35 -240
-26 -256 8 -14 11 -12 17 13 4 17 10 35 14 40 4 6 10 21 13 35 3 14 17 66 31
115 14 50 26 102 26 117 0 50 67 62 91 17 7 -14 8 -74 3 -187 l-7 -167 33 -95
c18 -52 36 -102 40 -110 15 -26 23 33 11 78 -13 45 -13 562 -1 562 4 0 23 -19
43 -42 39 -48 235 -248 242 -248 13 0 1 34 -34 103 -80 156 -177 277 -222 277
-9 0 -33 -25 -53 -55 l-37 -56 -24 30 c-28 32 -32 75 -12 112 7 13 34 61 61
107 l48 82 71 -66 c64 -58 75 -65 102 -59 86 18 104 17 144 -6 46 -25 81 -74
98 -134 27 -97 33 -125 33 -164 0 -56 16 -52 34 9 37 124 29 233 -22 315 -34
54 -46 62 -126 80 -121 28 -206 76 -206 117 0 21 99 194 135 235 11 13 72 63
135 113 110 85 117 89 155 83 38 -5 41 -3 57 30 24 50 75 105 118 127 41 21
54 17 63 -21 4 -15 37 -54 73 -89 53 -49 71 -60 88 -55 49 16 60 11 82 -35 37
-78 119 -120 234 -120 69 0 82 3 108 25 74 62 201 88 317 65 79 -15 336 -24
354 -12 20 15 5 44 -43 79 -50 38 -381 203 -446 223 -25 8 -59 23 -76 34 -43
27 -154 195 -154 231 0 17 45 20 82 6 13 -5 57 -19 98 -32 50 -15 87 -34 110
-56 60 -56 96 -70 209 -78 57 -4 113 -10 125 -15 12 -4 41 -14 66 -21 141 -40
255 -118 338 -234 130 -180 172 -191 172 -43 0 85 -27 203 -69 303 -36 83 -47
108 -77 170 -41 85 -44 109 -11 99 36 -11 69 -30 111 -63 21 -17 45 -31 52
-31 17 0 44 -51 44 -83 0 -25 13 -61 54 -152 38 -82 46 -105 47 -128 1 -31 32
-81 53 -85 10 -2 26 4 36 13 10 9 21 12 24 7 3 -6 27 -49 52 -97 55 -105 54
-126 -11 -225 -23 -36 -46 -83 -50 -105 -4 -24 -30 -74 -65 -126 -97 -143
-104 -161 -97 -254 9 -124 24 -145 117 -164 52 -11 132 -37 173 -57 40 -20 73
-17 107 7 24 18 38 21 84 16 43 -4 63 -1 96 15 23 12 66 24 96 27 51 6 56 9
77 46 15 27 32 43 54 49 29 9 31 13 26 40 -10 53 -122 288 -232 489 -17 31
-44 81 -59 110 -16 28 -40 72 -54 97 -14 25 -40 71 -57 103 l-33 59 22 23 c19
21 21 30 15 71 -3 26 -10 54 -15 63 -4 9 -14 30 -21 46 -7 17 -21 42 -31 57
-20 30 -23 54 -7 63 11 8 289 -272 289 -291 0 -7 -13 -17 -30 -23 -16 -5 -30
-14 -30 -19 0 -4 16 -24 36 -43 52 -49 143 -162 200 -249 47 -71 134 -237 134
-257 0 -15 41 -95 73 -143 16 -25 85 -101 152 -170 110 -112 138 -150 160
-215 22 -66 37 -198 45 -400 9 -249 20 -305 90 -461 37 -81 39 -150 10 -320
-11 -65 -17 -121 -13 -125 5 -4 33 -9 63 -12 30 -3 71 -9 90 -15 30 -8 21 -10
-62 -11 -134 -1 -158 -28 -100 -114 49 -71 133 -230 139 -262 3 -16 21 -49 39
-72 43 -53 45 -78 7 -68 -80 22 -94 -11 -44 -99 17 -29 31 -56 31 -60 0 -12
-23 -6 -88 25 -67 31 -116 39 -134 21 -17 -17 9 -48 92 -113 50 -38 80 -69 80
-80 0 -23 -5 -23 -86 -2 -78 21 -92 13 -74 -41 6 -20 22 -43 33 -51 12 -7 103
-48 202 -90 99 -42 186 -83 194 -90 12 -12 11 -25 -13 -92 -15 -43 -31 -100
-36 -128 -5 -27 -18 -70 -29 -95 -10 -25 -22 -74 -26 -110 -7 -70 -19 -100
-39 -100 -14 0 -52 -37 -45 -45 3 -2 65 -20 139 -39 74 -19 167 -46 206 -60
39 -14 75 -26 79 -26 8 0 1 115 -11 184 l-7 39 34 -6 c19 -4 75 -27 126 -52
50 -25 97 -45 103 -45 21 0 5 114 -30 220 -17 52 -30 105 -28 118 3 23 4 23
80 -17 102 -54 115 -54 87 2 -24 46 -86 131 -161 218 -26 31 -63 88 -82 126
-34 69 -126 330 -126 358 0 8 9 15 20 15 43 0 32 46 -42 173 -52 90 -52 91 53
313 22 47 29 76 29 123 l0 61 66 -2 c45 -2 68 1 71 9 2 7 -13 31 -35 55 -86
94 -92 158 -20 230 28 28 37 43 30 50 -6 6 -54 13 -107 16 -94 5 -96 5 -126
40 -30 34 -59 89 -59 112 0 6 11 15 25 20 14 5 25 13 25 18 0 16 -64 109 -129
187 -129 154 -132 161 -78 221 33 39 127 104 148 104 7 0 32 10 56 21 58 28
56 55 -7 87 -33 16 -62 22 -112 22 -79 0 -140 21 -164 57 -14 22 -14 31 -4 62
17 53 54 91 88 91 15 0 37 6 48 14 18 14 16 16 -31 35 -134 56 -287 147 -299
177 -10 27 3 34 65 34 51 0 60 3 57 17 -4 23 -143 99 -270 148 -57 21 -78 42
-54 51 12 4 13 11 6 24 -12 22 -106 94 -172 133 -64 37 -88 65 -134 155 -29
57 -62 100 -128 167 -92 92 -146 165 -146 197 0 73 -217 309 -345 375 -51 27
-85 38 -160 53 -33 6 -78 16 -100 20 -22 5 -71 12 -110 15 -124 11 -148 16
-189 44 -53 36 -198 108 -226 113 -40 6 -23 23 31 31 63 10 339 2 401 -12 24
-5 70 -15 103 -21 33 -7 71 -16 85 -20 14 -4 45 -13 70 -20 76 -21 132 -41
172 -61 10 -5 22 -9 28 -9 18 0 192 -83 293 -139 92 -52 114 -65 152 -90 63
-43 132 -71 173 -71 56 0 77 -19 77 -72 0 -29 -6 -51 -17 -62 -16 -16 -27 -37
-57 -109 -14 -36 -14 -118 0 -154 43 -106 101 -183 140 -183 10 0 28 -4 41 -9
13 -5 53 -14 90 -21 87 -15 113 -4 105 46 -6 33 -5 34 21 27 40 -10 173 -79
203 -105 19 -17 29 -40 38 -88 19 -103 33 -139 53 -146 21 -6 93 9 179 37 30
11 68 19 84 19 48 0 185 -74 268 -145 99 -85 103 -104 14 -66 -41 18 -74 25
-104 22 -41 -3 13 -110 120 -239 37 -45 96 -138 142 -222 43 -80 91 -169 107
-197 17 -30 25 -53 18 -53 -6 0 -32 16 -57 35 -54 41 -93 47 -93 13 0 -42 98
-243 178 -366 13 -21 13 -22 -4 -15 -11 5 -45 23 -77 41 -93 54 -102 37 -51
-92 13 -33 22 -61 21 -63 -2 -2 -25 13 -50 33 -82 64 -97 25 -51 -132 31 -108
110 -313 129 -334 35 -40 145 -283 133 -295 -3 -3 -31 8 -64 25 -71 38 -112
37 -133 -2 -13 -23 -13 -35 -2 -89 7 -34 23 -76 36 -93 13 -17 35 -56 49 -86
41 -90 88 -250 73 -250 -4 0 -23 11 -43 25 -56 38 -69 31 -67 -35 2 -54 9 -81
52 -187 23 -58 19 -59 -44 -21 -37 22 -74 23 -82 2 -3 -9 8 -33 26 -59 45 -62
66 -119 95 -247 47 -211 78 -460 77 -613 -1 -151 -15 -353 -25 -363 -4 -3 -27
4 -51 16 -82 40 -115 26 -115 -48 0 -97 61 -259 197 -530 51 -102 92 -189 90
-193 -1 -5 -31 22 -66 59 -86 93 -177 171 -212 183 -25 9 -33 7 -49 -9 -26
-26 -26 -80 0 -189 11 -46 18 -86 15 -89 -3 -3 -13 2 -23 11 -25 23 -59 21
-72 -2 -5 -11 -10 -52 -10 -92 0 -69 -1 -71 -22 -64 -79 24 -97 14 -106 -60
-5 -50 -19 -56 -48 -24 -25 27 -132 113 -162 128 -41 22 -62 6 -62 -47 -1 -54
-31 -133 -82 -212 -43 -67 -186 -240 -199 -240 -5 0 -21 18 -35 40 -15 22 -31
39 -36 38 -5 -2 -58 -107 -117 -233 -59 -127 -137 -292 -174 -367 -37 -75 -67
-141 -67 -147 0 -18 -19 -13 -54 14 -40 30 -41 30 -77 4 -96 -68 -338 -133
-486 -130 -309 6 -405 2 -419 -20 -3 -5 -13 -9 -23 -9 -23 0 -141 -60 -141
-72 0 -4 -6 -8 -13 -8 -7 0 -38 -25 -67 -56 -73 -74 -80 -82 -80 -89 0 -3 -9
-15 -20 -27 -11 -12 -20 -28 -20 -35 0 -7 -3 -13 -8 -13 -4 0 -12 -12 -19 -27
-63 -145 -66 -160 -36 -192 19 -20 98 -172 136 -261 60 -141 67 -160 67 -173
0 -6 -12 6 -27 28 -15 22 -30 42 -35 43 -4 2 -8 10 -8 18 0 8 -3 14 -7 14 -5
0 -21 20 -36 44 -35 55 -128 139 -238 214 -54 36 -62 38 -78 19 -12 -15 21
-72 78 -137 49 -56 40 -64 -31 -29 -84 42 -89 44 -105 33 -34 -21 -37 -40 -14
-73 13 -18 21 -34 19 -37 -3 -2 -23 5 -46 16 -72 35 -132 18 -132 -37 0 -12
-8 -23 -20 -26 -23 -6 -28 -57 -9 -104 66 -164 114 -242 135 -221 7 8 -17 68
-28 68 -5 0 -8 7 -8 15 0 8 -8 29 -19 47 -25 46 -64 158 -57 165 3 4 18 1 32
-6 32 -14 47 -6 34 19 -13 24 -13 70 0 70 19 0 155 -69 215 -110 33 -22 66
-40 74 -40 8 0 -13 28 -45 63 -101 105 -139 164 -96 151 34 -11 108 -49 148
-76 37 -25 42 -25 57 -11 14 15 13 20 -15 62 -18 25 -34 48 -37 51 -17 15 -71
90 -65 90 9 0 105 -73 153 -115 18 -16 47 -50 64 -75 17 -25 34 -47 37 -50 4
-3 48 -67 98 -142 50 -75 96 -139 102 -143 16 -10 25 25 12 46 -7 10 -12 26
-12 34 0 8 -4 23 -9 33 -5 9 -13 28 -18 42 -6 14 -15 37 -22 53 -10 25 -17 42
-40 100 -48 119 -109 244 -153 309 -41 61 -43 69 -29 96 5 9 19 40 32 67 30
64 88 150 131 195 40 42 96 90 104 90 3 0 18 8 32 18 103 71 294 99 452 66
143 -30 155 -32 180 -41 42 -14 57 -26 78 -68 32 -60 90 -115 121 -115 24 0
80 69 96 118 13 40 24 56 44 64 34 13 102 2 151 -25 41 -22 118 -97 159 -155
30 -43 121 -221 121 -237 0 -16 28 -40 37 -32 3 3 9 23 13 44 8 38 32 137 50
204 6 20 10 50 10 67 0 29 2 31 28 27 15 -2 53 -7 84 -10 32 -3 68 -9 80 -14
24 -9 69 -22 153 -42 28 -6 66 -24 85 -39 59 -46 72 -49 181 -48 l104 2 39
-80 c21 -43 47 -99 58 -124 11 -25 24 -52 28 -60 4 -8 13 -40 20 -70 7 -30 14
-61 16 -68 7 -24 21 -3 28 40 4 24 12 66 17 93 6 28 13 70 16 95 6 52 18 69
35 52 7 -7 15 -12 18 -12 6 0 26 98 33 157 2 25 -2 26 80 -20 124 -69 265
-222 326 -352 13 -27 27 -58 32 -67 5 -10 9 -29 9 -42 0 -14 5 -28 10 -31 6
-3 10 -21 10 -40 0 -19 5 -37 10 -40 6 -3 10 -21 10 -40 0 -19 5 -37 10 -40 6
-3 10 -17 10 -31 0 -35 23 -30 38 9 7 17 18 40 23 49 5 10 9 27 9 37 0 11 4
22 9 25 5 3 11 18 14 33 3 16 11 48 17 73 6 25 15 66 18 93 l7 47 32 -22 c22
-16 33 -31 33 -48 0 -30 27 -73 41 -65 5 4 9 30 9 60 0 30 5 66 10 81 15 39
16 442 1 457 -6 6 -11 19 -11 28 0 26 42 3 60 -34 25 -49 35 -36 38 51 l3 82
43 0 c35 0 50 6 76 30 39 37 93 41 110 10 12 -22 36 -27 42 -8 3 7 -3 35 -12
63 -10 27 -22 68 -28 90 -6 22 -15 58 -21 80 -15 57 -23 151 -16 175 13 40 50
24 132 -57 90 -90 113 -105 134 -89 31 23 42 73 31 134 -6 31 -14 73 -16 92
-3 19 -10 58 -16 85 -6 28 -14 65 -17 83 -3 18 -9 35 -14 38 -5 3 -9 18 -9 34
0 16 -4 32 -10 35 -5 3 -10 16 -10 29 0 12 -4 26 -9 32 -4 5 -11 26 -14 46 -5
32 -3 37 16 40 18 2 23 11 27 53 3 28 13 62 24 78 22 33 19 73 -23 297 -9 44
-8 59 4 77 17 25 20 111 6 157 -5 17 -15 51 -21 76 -7 25 -16 53 -21 62 -5 10
-9 27 -9 37 0 11 -4 23 -10 26 -5 3 -10 15 -10 26 0 10 -4 27 -9 37 -5 9 -13
28 -18 42 -6 14 -15 36 -21 50 -6 14 -10 62 -10 107 0 53 -4 88 -12 98 -10 13
-9 15 8 15 12 0 24 -4 27 -10 3 -5 19 -10 35 -10 16 0 32 -4 35 -10 9 -14 58
-13 73 2 18 18 15 46 -10 81 -12 18 -25 34 -28 37 -7 7 -26 48 -40 90 -15 42
-29 79 -41 102 -5 10 -9 27 -9 37 0 11 -4 23 -10 26 -5 3 -10 17 -10 30 0 13
-4 27 -10 30 -5 3 -10 15 -10 26 0 10 -4 27 -9 37 -8 15 -17 46 -42 140 -5 17
-13 47 -19 65 -15 51 -22 180 -11 197 14 21 45 2 134 -85 41 -41 89 -81 105
-89 28 -14 32 -14 57 6 25 20 26 24 21 87 -7 95 -17 150 -27 157 -5 3 -9 16
-9 29 0 13 -4 27 -10 30 -5 3 -10 17 -10 30 0 13 -4 26 -8 29 -4 3 -14 28 -22
56 -8 28 -18 53 -22 56 -4 3 -8 16 -8 29 0 13 -4 27 -10 30 -5 3 -10 15 -10
26 0 10 -4 27 -9 37 -5 9 -14 37 -21 62 -7 25 -16 55 -21 68 -5 13 -9 40 -9
60 l1 37 48 -52 c29 -33 56 -53 69 -53 20 0 22 5 22 52 0 28 -4 65 -9 82 -5
17 -15 51 -21 76 -7 25 -16 54 -20 65 -5 11 -11 31 -15 45 -3 14 -16 66 -29
115 -25 98 -38 185 -26 185 4 0 26 -18 49 -40 49 -46 74 -50 97 -14 15 22 16
33 4 97 -6 40 -14 79 -17 87 -6 17 -14 47 -41 150 -25 95 -49 173 -72 230
l-17 45 25 19 c22 17 24 23 18 68 -4 27 -11 57 -15 66 -5 10 -24 49 -42 87
-48 99 -169 308 -241 413 -17 24 -28 46 -25 48 2 3 17 0 33 -7 16 -6 38 -15
49 -20 72 -29 78 -22 41 44 -268 476 -539 770 -791 857 -55 19 -177 106 -188
134 -3 8 26 44 70 87 88 87 125 135 220 289 90 147 151 264 190 365 44 117 49
135 82 303 21 106 5 425 -24 488 -19 41 -31 50 -84 64 -74 20 -194 -20 -286
-95 -49 -39 -64 -47 -140 -73 -51 -17 -96 -21 -295 -26 -129 -3 -294 -11 -367
-17 l-132 -11 -113 84 c-150 112 -189 136 -348 212 -356 170 -685 232 -1100
206z m460 -161 c89 -11 176 -25 245 -39 28 -6 70 -15 95 -20 25 -4 61 -13 80
-18 19 -6 46 -13 60 -17 59 -14 106 -28 125 -35 11 -4 38 -13 60 -19 22 -7 49
-16 60 -20 11 -5 31 -13 45 -18 14 -6 45 -20 68 -32 24 -11 48 -21 54 -21 5 0
29 -13 53 -30 24 -16 46 -30 50 -30 12 0 48 -40 42 -46 -10 -10 -246 -5 -265
6 -10 5 -71 30 -137 55 -66 26 -136 54 -155 62 -36 15 -62 26 -102 42 -30 11
-67 26 -98 39 -14 5 -52 20 -85 32 -33 12 -68 26 -77 31 -10 5 -25 9 -33 9 -8
0 -23 4 -33 9 -9 5 -28 13 -42 19 -44 17 -120 55 -120 60 0 2 8 1 18 -3 9 -4
51 -11 92 -16z m-1485 -49 c6 -5 42 -14 79 -20 83 -13 126 -30 155 -61 26 -29
27 -45 1 -52 -11 -3 -20 -12 -20 -21 0 -23 -41 -76 -57 -76 -12 0 -78 39 -213
125 -19 13 -64 33 -100 45 -104 36 -122 52 -67 57 12 1 42 6 66 10 52 9 141 5
156 -7z m1196 -51 c91 -29 215 -91 276 -138 65 -50 172 -84 322 -101 121 -14
201 -43 255 -93 71 -66 62 -120 -27 -166 l-44 -23 -79 57 c-44 31 -112 72
-151 91 -40 19 -114 62 -165 95 -106 70 -183 109 -215 109 -13 0 -71 16 -130
36 -158 52 -228 64 -371 64 -98 0 -154 -6 -247 -26 -167 -36 -175 -37 -175
-29 0 23 27 46 68 59 27 7 70 23 98 35 65 28 218 48 385 50 113 1 147 -3 200
-20z m2473 -280 c0 -105 -5 -152 -23 -217 -52 -195 -196 -509 -306 -664 -45
-63 -64 -81 -110 -104 -51 -24 -60 -26 -96 -15 -73 22 -135 93 -164 187 -38
125 -26 471 19 569 31 66 83 124 152 170 64 43 173 84 220 85 56 0 158 38 224
84 36 24 70 43 75 42 6 -2 10 -55 9 -137z m-4303 105 c8 -8 44 -23 80 -35 72
-24 254 -112 281 -136 34 -30 17 -60 -24 -44 -13 5 -50 15 -83 21 -33 7 -96
21 -140 30 -44 10 -109 24 -144 31 -49 9 -74 21 -102 46 -21 19 -47 33 -62 33
-35 0 -123 45 -107 55 19 12 159 23 225 17 33 -2 67 -11 76 -18z m-708 5 c-6
-6 -30 -13 -54 -16 -43 -4 -43 -4 -19 10 30 18 90 23 73 6z m2257 -49 c33 -17
65 -30 73 -30 7 0 33 -10 58 -22 37 -19 61 -23 149 -24 124 -1 271 -34 321
-72 13 -10 40 -24 59 -32 19 -7 75 -33 124 -57 65 -33 86 -47 77 -56 -17 -17
-215 -17 -289 0 -35 8 -66 13 -68 10 -8 -7 -132 30 -158 47 -12 8 -58 21 -103
29 -48 9 -115 32 -169 58 -54 26 -112 46 -149 51 -157 21 -194 27 -250 42 -33
8 -90 15 -127 16 -37 0 -69 4 -73 9 -6 11 22 16 123 26 35 3 76 11 90 18 33
13 163 26 215 21 21 -3 65 -18 97 -34z m-2052 -117 c12 -13 22 -25 22 -27 0
-2 -44 -9 -97 -15 -217 -25 -260 -37 -528 -141 -157 -61 -330 -146 -430 -213
-49 -33 -92 -63 -95 -66 -3 -4 -30 -26 -60 -51 -30 -25 -108 -98 -173 -163
-65 -66 -121 -117 -124 -114 -3 3 9 21 26 39 17 18 34 41 37 51 3 9 9 17 14
17 5 0 11 8 15 19 3 10 13 28 23 39 9 11 28 35 42 53 53 68 77 95 133 151 31
31 57 62 57 67 0 6 9 16 20 23 25 16 25 25 3 31 -10 3 0 5 22 6 26 1 35 4 27
10 -11 6 -10 10 5 14 10 4 32 15 48 26 17 11 38 20 48 20 9 1 25 5 35 10 9 5
37 14 62 21 25 7 53 16 62 21 10 5 27 9 37 9 11 0 23 5 26 10 3 6 17 10 30 10
13 0 27 5 30 10 3 6 15 10 26 10 10 0 27 4 37 9 9 5 35 17 57 28 22 11 49 24
60 30 48 26 104 42 205 62 85 17 109 19 195 17 69 -1 83 -4 103 -23z m207
-168 c83 -20 164 -38 180 -41 58 -11 60 -13 36 -37 -27 -30 -27 -43 4 -63 32
-21 32 -37 0 -58 -43 -29 -103 -20 -165 23 l-55 38 -42 -20 c-40 -20 -43 -20
-87 -3 -24 9 -61 30 -81 46 -96 76 -196 79 -370 11 -60 -23 -180 -70 -265
-103 -390 -151 -358 -135 -440 -216 -41 -40 -87 -81 -102 -90 -16 -9 -28 -20
-28 -24 0 -4 -5 -8 -11 -8 -12 0 -97 -56 -119 -79 -8 -9 -53 -50 -100 -91 -47
-41 -109 -99 -137 -129 -34 -34 -53 -48 -53 -37 0 9 4 16 10 16 5 0 34 49 64
110 42 83 57 106 64 94 8 -14 12 -13 43 4 83 47 134 84 206 152 95 88 186 158
232 177 19 8 66 36 105 62 79 52 109 67 146 74 14 3 84 30 155 61 72 31 139
61 150 65 61 27 113 42 140 42 16 0 80 9 140 20 61 11 137 23 170 28 33 5 60
9 60 10 1 0 68 -15 150 -34z m3039 -27 c-4 -7 -19 -31 -34 -53 -27 -42 -39
-66 -61 -125 -16 -40 -16 -262 0 -313 5 -18 15 -52 21 -77 7 -25 16 -55 21
-67 5 -13 13 -33 18 -45 18 -49 77 -159 111 -208 33 -49 34 -53 12 -41 -12 6
-24 16 -27 21 -4 6 -31 28 -60 50 -75 55 -127 138 -155 245 -5 17 -16 57 -25
90 -11 36 -18 100 -19 160 -1 66 -5 103 -13 110 -31 25 37 147 107 192 19 12
50 34 69 48 38 28 46 31 35 13z m-3282 -205 c21 -45 72 -65 144 -58 104 9 110
-37 11 -83 -57 -25 -129 -39 -272 -53 -66 -6 -142 -15 -170 -21 -86 -17 -247
-66 -325 -98 -41 -17 -118 -47 -170 -66 -138 -51 -338 -135 -415 -176 -200
-105 -250 -141 -388 -281 -64 -66 -121 -116 -125 -112 -4 4 -2 10 4 12 7 2 27
42 45 88 18 47 39 85 46 85 7 0 13 4 13 8 0 4 12 15 28 24 26 16 150 105 182
131 35 29 109 77 119 77 6 0 11 4 11 9 0 5 8 11 18 14 9 4 35 17 57 30 22 13
62 32 89 42 27 11 74 42 105 70 58 54 257 171 350 206 51 19 57 19 99 4 25 -8
69 -15 98 -15 47 0 55 3 83 36 39 44 72 54 182 54 76 0 88 3 106 23 11 12 23
34 27 50 3 15 13 27 21 27 7 0 20 -12 27 -27z m-1592 -677 c0 -3 -4 -8 -10
-11 -5 -3 -10 -1 -10 4 0 6 5 11 10 11 6 0 10 -2 10 -4z m6080 -200 c0 -7 10
-21 23 -29 12 -9 36 -28 52 -42 51 -46 89 -71 125 -84 69 -25 133 -62 194
-111 61 -49 86 -73 81 -79 -3 -3 -10 1 -15 9 -19 30 -21 0 -2 -37 10 -21 24
-58 31 -83 7 -25 17 -54 22 -65 27 -61 119 -329 144 -420 53 -194 95 -367 89
-376 -3 -5 -1 -16 5 -23 6 -8 14 -33 17 -57 3 -24 8 -57 11 -74 3 -16 6 -46 7
-65 1 -19 5 -41 9 -47 8 -13 10 -72 8 -306 0 -31 -3 -63 -8 -70 -4 -6 -8 -29
-9 -50 -1 -21 -7 -44 -13 -51 -6 -7 -9 -15 -6 -18 13 -12 -55 -182 -79 -200
-12 -8 -4 -15 139 -130 66 -53 136 -111 155 -131 56 -55 140 -245 140 -315 0
-17 5 -34 10 -37 6 -3 10 -16 10 -27 0 -23 17 -81 31 -110 5 -10 9 -27 9 -37
0 -11 5 -23 10 -26 6 -3 10 -17 10 -30 0 -13 5 -27 10 -30 6 -3 10 -17 10 -30
0 -13 5 -27 10 -30 6 -3 10 -15 10 -26 0 -10 4 -27 9 -37 29 -57 37 -88 53
-205 18 -126 -2 -128 -129 -7 -37 36 -78 71 -90 78 -81 45 -123 -31 -92 -165
6 -27 15 -64 19 -83 17 -73 32 -126 41 -142 5 -10 9 -29 9 -42 0 -14 5 -28 10
-31 6 -3 10 -15 10 -26 0 -10 4 -27 10 -37 5 -9 19 -46 30 -82 12 -36 25 -74
29 -85 43 -107 60 -142 76 -155 25 -21 18 -40 -15 -40 -17 0 -38 4 -48 9 -9 5
-30 14 -47 21 -16 7 -38 16 -47 21 -24 12 -38 11 -38 -2 0 -11 23 -67 41 -101
12 -24 11 -102 -2 -115 -8 -8 -8 -17 0 -32 6 -11 16 -30 21 -41 6 -11 10 -27
10 -35 0 -8 5 -24 10 -35 6 -11 15 -29 20 -40 6 -11 10 -27 10 -35 0 -8 4 -23
9 -33 5 -9 15 -37 21 -62 7 -25 16 -56 21 -70 4 -14 11 -53 14 -88 6 -50 4
-68 -10 -88 -17 -27 -17 -35 6 -144 6 -30 13 -95 16 -144 4 -83 3 -88 -14 -82
-10 4 -22 8 -27 9 -13 3 -20 -34 -8 -42 5 -3 12 -22 16 -42 6 -32 3 -39 -19
-53 -32 -21 -31 -46 6 -141 4 -11 10 -31 14 -45 3 -14 11 -41 16 -60 36 -125
50 -204 56 -302 3 -56 1 -88 -6 -88 -5 0 -40 31 -78 69 -60 62 -128 111 -152
111 -5 0 -21 -12 -36 -27 -25 -26 -27 -32 -22 -93 3 -36 11 -87 17 -115 6 -27
14 -65 17 -83 3 -18 9 -35 14 -38 5 -3 9 -14 9 -25 0 -13 -7 -19 -22 -20 -22
0 -44 -12 -99 -51 -14 -10 -46 -20 -73 -22 -54 -5 -66 -16 -66 -62 0 -31 0
-32 -45 -26 -35 4 -46 1 -51 -12 -3 -9 -2 -22 4 -29 5 -6 13 -28 17 -47 11
-47 11 -319 1 -397 l-9 -62 -31 23 c-30 22 -77 39 -93 34 -4 -2 -9 -37 -10
-78 -1 -68 -11 -121 -33 -175 -5 -11 -11 -32 -14 -47 -9 -39 -23 -35 -30 10
-16 90 -19 102 -27 108 -5 3 -9 12 -9 20 0 25 -68 160 -106 211 -57 75 -143
161 -208 205 -68 47 -162 98 -181 98 -8 0 -15 -22 -19 -61 -10 -82 -15 -94
-31 -72 -11 15 -13 15 -25 -6 -12 -23 -26 -91 -37 -181 l-5 -45 -24 49 c-13
28 -24 56 -24 63 0 7 -4 13 -10 13 -5 0 -10 9 -10 20 0 11 -4 20 -10 20 -5 0
-10 9 -10 20 0 11 -4 20 -10 20 -5 0 -10 9 -10 20 0 11 -4 20 -8 20 -5 0 -14
16 -22 35 -8 20 -22 43 -32 52 -18 16 -19 16 -25 -5 -6 -26 -42 -29 -104 -11
-30 9 -42 9 -53 0 -12 -10 -24 -7 -63 20 -26 18 -51 36 -54 41 -3 5 -37 15
-75 23 -68 14 -115 26 -184 47 -19 6 -69 11 -110 12 l-75 1 -6 -45 c-4 -25
-12 -67 -18 -95 -7 -27 -16 -66 -20 -86 -14 -64 -21 -64 -55 3 -78 155 -204
293 -290 319 -25 7 -42 17 -38 21 4 4 61 16 127 26 66 10 127 21 135 23 12 3
16 -9 18 -63 2 -50 7 -68 17 -68 8 0 46 48 86 108 40 59 91 134 114 167 23 33
50 83 60 110 21 57 69 111 108 121 42 10 92 -4 148 -41 59 -41 65 -42 72 -15
10 38 34 9 87 -106 63 -136 78 -149 125 -104 36 35 64 86 129 236 47 109 66
123 98 69 20 -35 48 -137 57 -210 3 -27 11 -50 16 -50 31 0 122 306 132 445 6
83 16 110 39 110 26 0 122 -99 204 -211 71 -96 94 -119 120 -119 16 0 19 32 9
83 -21 107 -24 121 -144 507 -8 25 -22 79 -31 120 -9 41 -21 83 -26 93 -22 42
6 25 91 -57 49 -47 97 -86 105 -86 47 0 27 78 -69 280 -85 179 -122 284 -138
391 -10 74 -10 79 22 175 51 154 62 288 60 738 -1 223 2 413 8 459 10 73 9 83
-13 138 -14 33 -27 80 -31 104 -5 40 -3 47 25 74 28 29 36 31 101 31 39 0 71
4 71 8 0 4 -15 43 -33 87 -95 225 -57 272 103 128 33 -31 63 -53 67 -50 3 4
-27 87 -67 187 -86 214 -86 247 -2 174 50 -42 53 -32 12 33 -16 26 -30 51 -30
56 0 5 14 6 30 2 19 -4 30 -3 30 4 0 24 -68 121 -131 186 -73 75 -80 83 -251
310 -136 179 -139 184 -167 259 -26 71 -22 91 17 81 32 -7 76 -41 188 -142
106 -95 113 -95 70 -1 -13 29 -41 94 -62 143 -21 50 -63 140 -95 200 -104 200
-89 231 54 112 26 -22 50 -38 52 -35 3 2 0 22 -6 44 -17 59 -4 158 26 210 14
24 32 44 40 44 8 0 18 8 24 17 16 30 -32 103 -149 226 -63 67 -74 109 -31 115
30 5 129 -15 193 -39 26 -9 49 -14 52 -11 3 2 -31 44 -77 92 -45 47 -116 133
-157 189 -83 114 -76 109 -338 222 -56 24 -101 48 -99 54 3 9 274 92 310 94 9
0 17 -5 17 -13z m-6748 -1638 c-23 -23 -11 -28 66 -28 69 0 81 -3 99 -22 11
-13 23 -42 26 -66 6 -49 -16 -82 -87 -131 -60 -41 -179 -60 -266 -42 -39 8
-41 9 -14 10 17 1 36 7 42 14 5 6 24 55 41 107 18 52 36 103 41 112 6 10 10
24 10 32 0 15 14 24 40 25 11 1 11 -2 2 -11z m-833 -1486 c60 -62 93 -121 105
-187 9 -46 20 -34 31 32 12 76 23 55 27 -55 3 -71 0 -122 -9 -152 -17 -58 -16
-96 2 -166 34 -133 98 -216 390 -512 115 -118 211 -221 213 -230 10 -54 38
-119 69 -159 l34 -45 -48 5 c-80 10 -123 19 -129 28 -3 5 -21 9 -41 9 -20 0
-54 5 -77 11 -22 6 -57 14 -76 19 -46 11 -119 30 -150 40 -14 4 -45 13 -70 20
-81 22 -98 31 -139 75 -23 24 -41 47 -41 50 0 4 -8 19 -18 33 -27 39 -42 101
-42 170 0 33 -4 64 -10 67 -5 3 -10 13 -10 22 0 8 -8 27 -18 41 -10 15 -24 43
-31 62 -7 19 -17 44 -21 55 -20 48 -24 91 -25 271 0 152 2 191 12 187 10 -4
11 3 7 28 -4 19 -11 42 -15 51 -5 9 -9 31 -9 48 0 17 -5 40 -10 51 -7 12 -8
51 -4 104 6 76 9 85 26 85 11 0 46 -26 77 -58z m1026 -317 c17 -3 39 -10 50
-15 11 -5 36 -11 55 -15 83 -15 158 -26 202 -31 l48 -6 -19 -26 c-92 -128
-225 -202 -361 -202 -60 0 -112 -11 -152 -31 -10 -5 -23 -9 -29 -9 -7 0 -27
-11 -46 -26 -36 -27 -44 -67 -21 -104 7 -10 9 -23 4 -27 -10 -11 -124 -7 -150
5 -91 42 -123 62 -157 100 -21 25 -39 49 -39 54 0 5 -9 18 -20 30 -18 19 -20
20 -26 4 -4 -10 -2 -22 5 -29 6 -6 11 -17 11 -24 0 -21 63 -110 90 -127 l25
-15 -31 -1 c-43 0 -106 33 -126 67 -9 15 -26 39 -38 53 -26 30 -90 137 -90
151 0 5 -5 18 -12 28 -9 15 -9 28 0 59 7 22 12 51 12 66 0 25 1 26 16 12 24
-24 50 -28 185 -23 117 4 173 12 279 38 25 6 62 13 83 16 20 3 40 9 43 14 3 5
17 9 32 9 15 0 34 5 42 10 15 11 77 8 135 -5z m452 -1326 c6 -6 26 -14 45 -18
31 -6 33 -9 33 -51 0 -26 -5 -45 -13 -48 -21 -7 -92 72 -92 102 0 28 9 33 27
15z m2759 -371 c-10 -82 -18 -118 -27 -124 -5 -3 -9 -14 -9 -25 0 -10 -4 -27
-10 -37 -5 -9 -23 -60 -40 -112 -17 -52 -35 -104 -40 -115 -4 -11 -20 -51 -35
-90 -50 -131 -162 -365 -207 -432 -15 -23 -28 -44 -28 -48 0 -6 -79 -126 -89
-135 -4 -3 -19 -23 -35 -45 -49 -67 -227 -236 -239 -228 -12 8 -105 23 -144
24 -22 1 -34 19 -13 19 6 0 10 22 10 49 0 28 -4 53 -10 56 -5 3 -10 30 -10 60
0 30 -4 57 -10 60 -5 3 -10 19 -10 36 0 16 -5 38 -12 49 -17 27 -3 36 37 22
60 -22 129 -26 147 -9 10 10 19 12 25 6 6 -6 23 -4 46 6 20 8 46 15 57 15 24
0 38 26 21 43 -8 8 -25 8 -63 0 -29 -6 -55 -9 -57 -8 -6 7 40 140 61 173 11
18 29 37 39 43 11 6 19 18 18 27 -3 31 1 42 15 42 8 0 35 20 60 44 25 25 56
46 68 48 15 2 24 11 26 26 3 18 -1 22 -22 22 -14 0 -26 3 -26 8 0 13 45 57 74
72 37 19 81 84 115 173 4 12 13 33 19 47 5 14 15 45 22 70 6 25 16 59 21 76 5
17 9 40 9 51 0 32 17 40 125 61 137 28 128 29 121 -20z m-1895 -445 c-1 -85 3
-144 9 -148 6 -3 10 -15 10 -26 0 -10 5 -28 10 -39 6 -11 15 -29 20 -40 6 -11
10 -32 10 -48 0 -22 -7 -30 -41 -45 -36 -16 -39 -20 -27 -35 21 -27 59 -59 87
-73 39 -20 81 -49 81 -57 0 -8 -272 -5 -307 3 -16 4 -23 13 -23 28 0 26 -35
54 -44 34 -3 -7 -3 8 0 33 3 25 10 49 15 55 5 5 9 17 9 27 0 10 5 27 10 38 6
11 15 29 20 40 6 11 10 28 10 38 0 10 4 22 8 28 5 5 14 29 21 54 7 25 17 53
22 62 5 10 9 27 9 37 0 11 5 23 10 26 6 3 10 17 10 31 0 13 4 32 9 42 15 30
31 88 31 113 0 23 1 23 16 -6 13 -24 16 -60 15 -172z m-234 -485 c-3 -8 -6 -5
-6 6 -1 11 2 17 5 13 3 -3 4 -12 1 -19z m397 -108 c6 -6 21 -10 36 -10 27 -1
109 -21 125 -31 55 -35 92 -49 130 -49 24 0 47 5 50 10 3 6 13 10 22 10 10 0
4 -10 -17 -29 -22 -19 -31 -34 -27 -45 13 -34 37 -28 93 23 31 29 59 49 63 45
3 -4 0 -9 -6 -11 -7 -3 -13 -13 -13 -24 0 -10 -4 -19 -10 -19 -5 0 -10 -7 -10
-15 0 -8 -4 -15 -10 -15 -5 0 -10 -7 -10 -16 0 -22 -32 -53 -38 -36 -2 6 -10
12 -18 12 -8 0 -14 5 -14 10 0 6 -9 10 -20 10 -11 0 -20 3 -20 8 0 11 -51 32
-78 32 -27 0 -52 -21 -52 -45 0 -13 -4 -12 -22 5 -30 27 -98 28 -98 1 0 -17
-3 -18 -25 -8 -14 7 -25 18 -25 25 0 7 -4 11 -10 7 -13 -8 -61 5 -54 16 3 5
-6 13 -21 19 -14 5 -28 17 -31 25 -8 21 -24 19 -24 -2 0 -15 -2 -15 -9 -4 -6
9 -5 21 2 32 9 15 6 22 -18 44 -17 14 -40 25 -53 25 -15 0 -21 4 -16 11 9 14
213 4 228 -11z m283 -181 c60 -33 103 -69 103 -85 0 -8 -7 -26 -16 -39 -14
-21 -24 -25 -67 -25 -56 0 -86 19 -88 54 0 18 -2 16 -11 -6 -8 -25 -15 -28
-53 -28 -70 0 -75 5 -75 71 0 70 10 74 76 29 l44 -31 0 29 c0 30 16 52 37 52
7 0 29 -9 50 -21z m3133 -126 c0 -16 -32 -98 -48 -125 -35 -60 -85 -40 -136
53 -16 30 -34 57 -40 61 -6 4 32 9 84 11 52 1 105 4 118 5 12 1 22 -1 22 -5z
m-2567 -60 c-23 -2 -64 -2 -90 0 -26 2 -7 3 42 3 50 0 71 -1 48 -3z m114 1
c-3 -3 -12 -4 -19 -1 -8 3 -5 6 6 6 11 1 17 -2 13 -5z m-1132 -63 c129 -4 178
-8 153 -14 -52 -11 -363 3 -428 19 l-55 14 70 -6 c39 -4 156 -9 260 -13z m82
-1058 c-3 -10 -5 -4 -5 12 0 17 2 24 5 18 2 -7 2 -21 0 -30z m74 -222 c14 -11
20 -23 15 -28 -5 -4 -11 -2 -13 5 -12 34 -93 -12 -93 -52 0 -8 -4 -18 -10 -21
-24 -15 -9 54 19 84 34 36 50 38 82 12z m-806 -1 c-3 -5 -10 -10 -16 -10 -5 0
-9 5 -9 10 0 6 7 10 16 10 8 0 12 -4 9 -10z m1945 -131 c0 -11 -4 -17 -10 -14
-5 3 -10 13 -10 21 0 8 5 14 10 14 6 0 10 -9 10 -21z m20 -49 c0 -11 -4 -20
-10 -20 -5 0 -10 9 -10 20 0 11 5 20 10 20 6 0 10 -9 10 -20z m-767 -17 c-7
-2 -21 -2 -30 0 -10 3 -4 5 12 5 17 0 24 -2 18 -5z m257 -1 c0 -4 -13 -13 -28
-20 -16 -7 -35 -23 -42 -37 -13 -24 -30 -34 -30 -17 0 12 47 62 59 62 6 0 11
5 11 10 0 6 7 10 15 10 8 0 15 -3 15 -8z m530 -44 c0 -16 -3 -19 -11 -11 -6 6
-8 16 -5 22 11 17 16 13 16 -11z"/>
<path d="M9728 10356 c-3 -17 1 -31 13 -42 11 -10 19 -12 19 -6 0 7 -5 12 -11
12 -6 0 -9 9 -6 19 2 10 1 24 -3 31 -5 8 -9 3 -12 -14z"/>
<path d="M9750 9704 c0 -4 9 -15 21 -25 11 -9 19 -20 17 -22 -2 -3 8 -18 22
-34 14 -15 33 -39 43 -53 l17 -24 0 26 c0 15 -4 30 -10 33 -5 3 -10 14 -10 23
0 9 -23 32 -50 50 -28 17 -50 29 -50 26z"/>
<path d="M9633 8645 c0 -22 2 -30 4 -17 2 12 2 30 0 40 -3 9 -5 -1 -4 -23z"/>
<path d="M9627 8588 c-3 -9 1 -24 8 -35 11 -14 14 -15 14 -3 0 8 -4 24 -8 34
-6 17 -8 17 -14 4z"/>
<path d="M9250 8143 c0 -10 4 -14 8 -8 4 6 11 13 16 18 5 4 2 7 -7 7 -10 0
-17 -8 -17 -17z"/>
<path d="M9275 8134 c-15 -15 -15 -18 3 -38 11 -11 36 -46 56 -76 l36 -55 0
47 c0 26 -4 50 -10 53 -5 3 -10 15 -10 25 0 10 -13 28 -29 39 -27 20 -31 20
-46 5z"/>
<path d="M9040 7823 c0 -5 4 -13 9 -18 26 -28 125 -222 142 -278 l13 -47 13
43 c7 23 13 65 13 93 0 51 -1 53 -57 100 -31 27 -74 64 -95 83 -21 18 -38 29
-38 24z"/>
<path d="M1120 10775 c-20 -24 -4 -45 35 -45 36 0 58 22 39 39 -19 18 -62 21
-74 6z"/>
<path d="M1266 10691 c-10 -15 4 -38 29 -49 20 -9 28 -8 41 5 15 15 14 18 -8
34 -25 20 -54 24 -62 10z"/>
<path d="M1227 10503 c-14 -13 -7 -42 12 -53 46 -24 88 2 53 33 -21 18 -56 29
-65 20z"/>
<path d="M5530 14725 c-7 -8 -9 -22 -6 -31 4 -10 -5 -29 -24 -50 -40 -46 -38
-77 10 -169 l40 -76 -21 -48 c-21 -49 -21 -49 -1 -87 11 -22 34 -57 51 -78 44
-55 50 -91 27 -147 -11 -26 19 -49 52 -39 53 15 131 61 156 91 32 38 50 102
42 151 -5 33 -15 58 -55 148 -4 8 -25 24 -48 34 -38 18 -42 24 -64 95 -31 104
-55 150 -98 188 -42 37 -44 38 -61 18z"/>
<path d="M4605 14597 c-66 -25 -112 -57 -147 -103 -42 -55 -44 -62 -23 -90 14
-19 15 -19 55 4 45 26 64 23 120 -15 19 -13 51 -28 71 -33 28 -8 39 -18 49
-43 6 -17 18 -45 27 -60 13 -25 13 -33 -1 -74 -9 -26 -16 -50 -16 -54 0 -17
41 -19 65 -3 24 15 25 15 25 -3 0 -36 -31 -138 -45 -149 -7 -5 -17 -23 -21
-38 -4 -16 -35 -59 -70 -96 -61 -64 -78 -100 -53 -115 19 -12 76 5 105 31 31
26 150 106 196 130 15 8 29 10 32 5 8 -12 -32 -51 -68 -66 -45 -19 -126 -108
-126 -138 0 -42 22 -50 60 -22 37 27 94 49 113 42 6 -2 28 3 47 11 19 8 74 22
121 32 48 10 102 25 120 33 19 8 59 25 89 38 101 43 190 135 190 195 0 51 -73
96 -105 65 -6 -5 -30 -11 -55 -14 -25 -3 -63 -10 -85 -17 -22 -6 -57 -15 -77
-19 -21 -5 -59 -26 -85 -47 -74 -61 -113 -85 -114 -71 -1 7 -1 36 -1 65 0 51
2 55 64 120 60 64 64 71 73 135 6 37 7 73 3 80 -4 7 -8 27 -8 45 0 27 -4 32
-23 32 -13 0 -32 -9 -42 -20 -12 -13 -31 -20 -57 -20 -71 0 -117 49 -129 140
-5 30 -13 56 -19 58 -6 2 -17 17 -25 33 -18 34 -45 37 -94 13 -29 -14 -34 -14
-56 0 -28 18 -38 18 -80 3z"/>
<path d="M3132 14444 c-110 -24 -139 -44 -226 -154 -67 -85 -96 -129 -89 -133
5 -3 37 13 73 35 106 65 302 173 345 190 44 17 61 37 52 62 -8 20 -64 20 -155
0z"/>
<path d="M4250 14345 c-6 -8 -10 -20 -7 -27 2 -7 -2 -34 -10 -60 -13 -46 -13
-49 16 -106 27 -53 28 -62 19 -103 -6 -24 -14 -52 -19 -61 -14 -27 -11 -55 7
-62 22 -8 31 -1 57 46 12 22 28 52 36 67 22 39 24 176 4 231 -28 78 -73 111
-103 75z"/>
<path d="M4397 14353 c-12 -11 -8 -72 6 -106 16 -37 7 -222 -12 -271 -6 -16
-9 -36 -6 -46 3 -10 -23 -59 -70 -130 -41 -62 -75 -119 -75 -127 0 -7 -17 -32
-38 -56 -100 -109 -152 -204 -123 -222 12 -7 59 42 68 70 3 11 37 54 74 96 59
65 79 80 140 105 77 30 99 58 99 123 0 22 13 45 44 80 24 27 54 76 66 108 25
66 24 72 -36 200 -19 39 -34 74 -34 77 0 3 -16 28 -36 56 -34 47 -52 59 -67
43z"/>
<path d="M2438 14313 c-9 -10 -21 -36 -28 -57 -7 -22 -22 -55 -33 -73 -17 -30
-18 -39 -8 -72 13 -44 38 -72 45 -50 2 8 7 36 10 63 3 27 20 76 36 109 17 33
30 68 30 79 0 23 -32 24 -52 1z"/>
<path d="M6900 13929 c-33 -7 -59 -33 -60 -59 0 -9 -5 -21 -10 -26 -6 -6 -17
-44 -26 -85 -8 -41 -26 -96 -40 -124 -32 -67 -111 -155 -178 -199 -63 -42
-106 -89 -106 -118 0 -11 24 -43 55 -73 94 -90 68 -145 -70 -145 -36 0 -75 -5
-86 -10 -22 -12 -26 -59 -8 -93 10 -18 170 -237 173 -237 1 0 36 11 78 24 43
14 108 32 145 41 132 31 143 35 143 54 0 10 -14 63 -30 117 -35 111 -80 286
-80 306 0 7 47 97 105 198 97 170 113 192 195 271 94 90 109 121 73 150 -17
15 -212 20 -273 8z"/>
<path d="M6080 13843 c-19 -15 -78 -68 -130 -118 -85 -81 -103 -94 -172 -118
-44 -16 -97 -27 -127 -27 -28 0 -74 -9 -103 -21 -120 -48 -500 -169 -593 -189
-84 -18 -117 -20 -206 -15 -87 6 -112 4 -137 -9 -20 -10 -33 -12 -37 -6 -6 9
-20 4 -85 -31 -8 -4 -43 -22 -78 -39 -49 -25 -71 -44 -106 -93 -25 -34 -90
-106 -145 -160 -78 -77 -94 -97 -73 -92 15 4 34 13 43 21 18 16 47 18 68 5 12
-8 8 -11 -15 -16 -16 -4 -38 -9 -49 -12 -38 -10 -90 -56 -150 -130 -79 -98
-79 -99 -104 -74 -31 31 -26 56 19 105 24 26 37 47 30 51 -5 3 -14 4 -19 1
-25 -16 -173 -28 -421 -35 -288 -9 -297 -10 -530 -73 -245 -65 -341 -101 -468
-177 -78 -46 -89 -77 -14 -41 22 11 53 20 67 20 14 0 33 4 43 10 38 21 175 60
297 84 328 63 501 75 607 42 72 -22 169 -85 211 -138 18 -22 57 -57 87 -78 98
-66 101 -86 10 -54 -51 19 -150 44 -295 77 -84 18 -129 22 -280 22 -165 -1
-188 -3 -285 -29 -119 -32 -264 -97 -336 -152 -63 -46 -183 -169 -221 -226
-19 -26 -32 -61 -35 -90 l-5 -46 34 31 c19 17 41 46 50 64 22 46 146 171 218
219 146 98 282 137 532 154 111 8 179 8 228 0 152 -22 210 -33 218 -40 5 -4
-47 -11 -115 -15 -152 -9 -315 -36 -388 -65 -127 -50 -258 -145 -321 -232 -19
-26 -37 -47 -41 -48 -5 0 -8 -6 -8 -14 0 -7 -7 -27 -15 -42 -22 -43 -19 -58 7
-34 12 11 27 20 33 20 7 0 29 25 48 55 20 30 67 79 104 109 64 54 176 116 207
116 8 0 17 4 20 9 3 5 23 12 43 15 21 4 61 11 88 15 171 31 301 38 440 22 l60
-6 -60 -8 c-33 -4 -82 -12 -110 -18 -27 -5 -65 -13 -83 -16 -18 -3 -35 -9 -38
-14 -3 -5 -14 -9 -24 -9 -17 0 -121 -58 -109 -61 26 -6 88 -6 104 1 20 8 67
21 143 39 104 26 182 33 333 30 l162 -3 43 57 c24 31 44 61 44 66 0 5 -13 14
-29 21 -34 13 -70 50 -109 107 -15 23 -45 62 -66 88 -23 26 -35 49 -30 54 5 5
38 18 74 30 36 12 74 26 85 30 121 49 147 63 180 98 39 41 55 41 173 -1 41
-14 91 -26 111 -26 20 0 41 -4 47 -9 34 -33 114 -63 201 -77 53 -8 108 -14
122 -14 14 0 37 -9 50 -19 29 -22 40 -19 101 27 49 38 56 55 24 60 -31 4 -65
44 -54 62 7 12 34 15 127 15 164 0 177 11 83 71 l-60 39 0 68 c0 40 -4 67 -10
67 -19 0 -115 -66 -198 -136 -105 -90 -166 -134 -182 -134 -7 0 -22 8 -32 17
-18 16 -22 16 -48 1 -15 -8 -33 -12 -39 -9 -7 5 -2 12 14 19 38 18 114 91 140
136 20 34 57 140 94 266 12 40 64 67 220 116 80 25 183 58 228 73 l83 28 52
-48 c61 -56 84 -60 143 -24 57 35 76 32 108 -17 39 -61 35 -81 -28 -147 -30
-32 -55 -67 -55 -77 0 -25 -18 -44 -35 -37 -24 8 -56 -18 -76 -60 -20 -45 -25
-92 -9 -82 21 13 179 54 253 66 l79 12 -8 46 c-13 73 -10 132 9 184 23 59 41
60 110 10 53 -39 97 -117 112 -197 7 -36 63 -106 85 -106 23 0 32 46 28 129
-4 71 -11 97 -37 148 -17 34 -31 68 -31 75 0 7 -14 40 -30 73 -32 64 -38 122
-20 184 17 59 24 235 11 259 -15 29 -28 28 -71 -5z m-1385 -543 c3 -5 15 -10
26 -10 11 0 44 -24 72 -52 94 -95 101 -203 20 -297 -51 -61 -103 -81 -206 -81
-109 0 -183 26 -247 86 -44 41 -45 45 -45 102 0 32 7 72 15 88 21 43 102 120
146 139 22 9 46 21 54 25 21 12 158 12 165 0z"/>
<path d="M4565 13221 c-50 -14 -75 -48 -75 -103 0 -58 70 -109 123 -89 104 40
58 221 -48 192z"/>
<path d="M2060 13543 c0 -8 8 -30 19 -51 10 -20 33 -86 50 -147 18 -60 43
-126 56 -146 23 -35 77 -69 109 -69 20 0 56 56 56 87 0 21 -1 22 -28 6 -74
-42 -132 42 -148 215 -6 62 -5 72 9 72 9 0 18 4 21 9 3 4 -28 15 -69 23 -64
13 -75 13 -75 1z"/>
<path d="M2250 13506 c0 -10 9 -16 25 -16 14 0 25 5 25 10 0 6 -4 10 -9 10 -5
0 -16 3 -25 6 -11 4 -16 1 -16 -10z"/>
<path d="M2292 13478 c-20 -10 -23 -18 -20 -62 2 -42 6 -51 23 -54 28 -4 50
50 32 80 -9 16 -9 22 1 25 6 3 12 9 12 14 0 12 -19 10 -48 -3z"/>
<path d="M5370 13330 c-56 -26 -77 -46 -100 -90 -10 -19 -41 -61 -70 -94 -28
-32 -49 -60 -47 -63 8 -7 110 59 169 111 48 41 69 52 120 63 34 7 71 21 81 32
19 19 19 19 -6 36 -41 27 -96 29 -147 5z"/>
<path d="M2432 13295 c-7 -14 -12 -31 -12 -38 1 -16 39 34 40 51 0 21 -16 13
-28 -13z"/>
<path d="M772 13051 c-9 -5 2 -14 35 -26 33 -12 69 -39 112 -84 36 -37 56 -53
46 -36 -29 48 -76 95 -124 126 -50 32 -50 32 -69 20z"/>
<path d="M5890 12993 c-72 -11 -270 -71 -325 -99 -99 -51 -108 -58 -122 -107
-16 -54 -30 -60 -44 -17 -13 36 -22 37 -74 5 -22 -14 -60 -35 -85 -47 -63 -32
-160 -97 -160 -108 0 -11 44 -41 90 -63 94 -43 135 -51 245 -51 102 1 117 3
201 36 182 72 245 119 295 224 27 57 30 72 27 145 -3 85 -5 89 -48 82z"/>
<path d="M6850 12800 c-14 -5 -77 -25 -140 -44 -63 -20 -120 -40 -126 -44 -6
-4 -10 -32 -10 -62 1 -51 -1 -55 -24 -58 -33 -5 -50 -20 -50 -44 0 -33 67
-118 94 -118 26 0 272 64 282 74 7 7 14 70 17 159 7 157 8 154 -43 137z"/>
<path d="M340 12775 c-14 -8 -20 -15 -15 -15 6 0 36 -2 67 -4 69 -5 172 -56
236 -117 24 -23 45 -39 49 -36 12 12 -96 104 -162 138 -83 43 -139 54 -175 34z"/>
<path d="M4293 12543 c-25 -17 -32 -63 -10 -63 13 0 77 60 77 73 0 13 -45 6
-67 -10z"/>
<path d="M4357 12473 c-54 -41 -56 -61 -8 -133 38 -57 48 -80 36 -80 -5 0 -80
55 -119 87 -18 15 -22 13 -62 -33 -47 -54 -53 -72 -26 -80 31 -10 107 -49 120
-61 19 -18 24 -17 112 27 74 37 80 42 69 61 -15 29 -5 34 38 16 47 -18 82 -7
127 41 27 29 28 32 10 38 -51 16 -204 110 -219 134 -11 18 -41 11 -78 -17z"/>
<path d="M17 12430 c-9 -6 -17 -18 -17 -27 0 -13 3 -13 15 -3 18 15 198 9 231
-7 10 -6 29 -15 41 -21 29 -15 33 -15 33 3 0 8 -6 15 -13 15 -7 0 -33 10 -58
21 -51 25 -202 37 -232 19z"/>
<path d="M6735 12402 c-115 -31 -117 -34 -65 -122 16 -28 30 -58 30 -66 0 -8
-16 -22 -35 -30 -19 -8 -35 -21 -35 -29 0 -63 -66 -105 -167 -105 -155 0 -414
32 -534 66 -54 15 -58 15 -131 -10 -41 -13 -103 -36 -139 -50 -35 -13 -116
-43 -179 -66 -172 -63 -244 -91 -253 -100 -5 -4 12 -19 37 -33 24 -13 79 -51
121 -83 193 -149 227 -166 279 -144 210 89 381 101 526 39 46 -20 50 -24 50
-54 0 -19 -9 -54 -19 -79 -11 -25 -23 -61 -27 -81 -6 -33 -5 -35 22 -35 66 0
261 22 281 32 12 6 33 8 47 4 19 -5 30 -1 43 14 10 11 27 20 38 20 12 0 30 7
41 15 31 23 59 18 111 -23 46 -36 54 -38 160 -50 62 -7 126 -15 143 -18 41 -9
40 10 -5 95 -45 84 -46 85 -131 153 -66 52 -123 118 -153 176 -12 22 -8 28 39
75 61 60 75 85 88 157 11 58 3 136 -23 224 -8 27 -15 69 -15 93 0 52 -2 53
-145 15z"/>
<path d="M332 12359 c2 -6 8 -10 13 -10 5 0 11 4 13 10 2 6 -4 11 -13 11 -9 0
-15 -5 -13 -11z"/>
<path d="M376 12341 c-4 -7 -5 -15 -2 -18 9 -9 19 4 14 18 -4 11 -6 11 -12 0z"/>
<path d="M4715 12310 c-3 -5 -1 -10 4 -10 6 0 11 5 11 10 0 6 -2 10 -4 10 -3
0 -8 -4 -11 -10z"/>
<path d="M4725 12271 c-132 -32 -131 -39 35 -137 30 -18 79 -57 109 -88 l54
-55 66 36 c69 39 83 51 77 69 -4 10 84 74 102 74 34 0 70 95 40 104 -7 3 -103
7 -213 9 -168 5 -211 3 -270 -12z"/>
<path d="M4460 12177 c-56 -29 -90 -50 -90 -57 0 -12 42 -30 54 -23 19 12 89
93 84 98 -2 2 -24 -6 -48 -18z"/>
<path d="M3338 12183 c7 -3 16 -2 19 1 4 3 -2 6 -13 5 -11 0 -14 -3 -6 -6z"/>
<path d="M5615 12159 c-16 -6 -97 -14 -180 -18 l-150 -7 -162 -83 c-110 -57
-163 -89 -163 -100 1 -9 16 -33 35 -54 32 -37 34 -38 62 -24 66 34 607 250
656 262 31 8 37 25 8 25 -10 0 -31 2 -47 5 -16 2 -42 -1 -59 -6z"/>
<path d="M4508 12103 c-21 -22 -38 -45 -38 -51 0 -7 27 -40 61 -73 57 -56 63
-59 109 -59 l49 0 -62 93 c-34 51 -66 101 -72 111 -9 15 -14 13 -47 -21z"/>
<path d="M27 12103 c-15 -2 -27 -11 -27 -18 0 -11 6 -12 31 -3 23 8 45 7 88
-3 73 -17 93 -17 99 0 3 10 -1 12 -18 8 -12 -3 -34 -1 -49 4 -31 13 -86 18
-124 12z"/>
<path d="M258 12063 c-10 -2 -18 -9 -18 -14 0 -14 26 -11 40 6 13 15 9 16 -22
8z"/>
<path d="M316 12041 c-12 -5 -15 -10 -9 -14 6 -4 16 0 23 8 14 17 13 17 -14 6z"/>
<path d="M360 12015 c-7 -9 -8 -15 -2 -15 5 0 12 7 16 15 3 8 4 15 2 15 -2 0
-9 -7 -16 -15z"/>
<path d="M4160 11955 c-13 -14 -20 -25 -16 -25 4 0 18 11 32 25 14 14 21 25
16 25 -5 0 -19 -11 -32 -25z"/>
<path d="M4364 11918 c-16 -18 -21 -26 -12 -19 9 7 26 10 37 6 10 -3 22 -1 26
5 3 6 -3 10 -16 10 -18 0 -19 2 -9 15 23 28 4 15 -26 -17z"/>
<path d="M4500 11936 c0 -10 28 -13 41 -5 10 6 7 9 -13 9 -16 0 -28 -2 -28 -4z"/>
<path d="M18 11923 c-40 -10 -14 -22 50 -21 37 0 92 -3 122 -6 30 -2 44 -3 30
0 -14 3 -38 9 -55 14 -36 12 -123 19 -147 13z"/>
<path d="M4230 11909 c0 -5 5 -7 10 -4 6 3 10 8 10 11 0 2 -4 4 -10 4 -5 0
-10 -5 -10 -11z"/>
<path d="M4627 11884 c-12 -13 6 -34 30 -34 29 0 63 17 63 30 0 11 -83 14 -93
4z"/>
<path d="M265 11870 c3 -5 12 -7 20 -3 21 7 19 13 -6 13 -11 0 -18 -4 -14 -10z"/>
<path d="M3465 11870 c3 -5 10 -10 16 -10 5 0 9 5 9 10 0 6 -7 10 -16 10 -8 0
-12 -4 -9 -10z"/>
<path d="M345 11860 c-3 -5 -1 -10 4 -10 6 0 11 5 11 10 0 6 -2 10 -4 10 -3 0
-8 -4 -11 -10z"/>
<path d="M3385 11861 c-8 -7 -56 -13 -145 -18 -41 -3 -95 -7 -120 -10 -25 -3
-79 -8 -120 -10 -86 -5 -126 -9 -157 -19 -14 -4 -23 -2 -23 5 0 6 -5 11 -11
11 -10 0 1 -17 98 -148 24 -31 46 -64 50 -72 9 -20 50 -60 61 -60 4 0 26 9 48
19 43 21 71 47 61 57 -7 8 2 16 78 75 76 58 181 129 192 129 4 0 19 9 32 19
l24 18 -32 5 c-17 2 -33 2 -36 -1z"/>
<path d="M4489 11859 c-9 -6 8 -9 45 -9 33 0 57 2 55 4 -10 9 -88 13 -100 5z"/>
<path d="M5110 11849 c-24 -11 -46 -22 -49 -24 -2 -3 8 -20 23 -39 33 -44 33
-55 -1 -53 -22 2 -29 -3 -31 -20 -7 -46 29 -83 240 -244 l212 -162 131 22 c71
12 146 26 165 31 l35 8 -45 1 c-274 6 -482 94 -604 254 -42 54 -28 63 73 47
45 -8 84 -11 88 -7 11 12 -14 52 -82 130 -74 85 -82 88 -155 56z"/>
<path d="M4400 11841 c0 -5 13 -11 30 -14 16 -4 48 -15 70 -26 33 -16 44 -17
65 -8 29 14 33 27 8 27 -10 0 -36 7 -58 15 -45 16 -115 20 -115 6z"/>
<path d="M4723 11837 c-29 -13 -29 -20 5 -57 25 -29 29 -30 60 -19 39 13 41
29 5 55 -43 31 -46 32 -70 21z"/>
<path d="M390 11829 c0 -5 5 -7 10 -4 6 3 10 8 10 11 0 2 -4 4 -10 4 -5 0 -10
-5 -10 -11z"/>
<path d="M4632 11774 c-35 -17 -34 -20 11 -19 23 0 52 -4 65 -8 14 -5 22 -4
22 2 0 6 -7 11 -15 11 -8 0 -15 4 -15 9 0 14 -43 18 -68 5z"/>
<path d="M4810 11730 c-12 -8 -12 -11 3 -28 12 -13 14 -21 6 -29 -8 -8 22 -38
103 -105 63 -52 164 -145 226 -207 108 -108 112 -111 143 -103 l32 8 -89 84
c-214 203 -278 268 -322 327 -47 62 -69 74 -102 53z"/>
<path d="M393 11603 c9 -2 23 -2 30 0 6 3 -1 5 -18 5 -16 0 -22 -2 -12 -5z"/>
<path d="M284 11579 c-43 -21 -91 -65 -82 -74 3 -3 20 7 38 22 18 15 54 37 79
49 29 14 38 23 26 23 -11 0 -39 -9 -61 -20z"/>
<path d="M4320 11582 c-30 -1 -62 -5 -70 -9 -8 -4 -39 -8 -69 -9 -98 -4 -162
-29 -233 -92 -47 -43 -52 -44 -49 -9 3 20 -6 21 -60 5 -23 -8 -51 -25 -63 -41
-39 -53 -66 -78 -76 -72 -6 4 -6 15 1 32 15 41 4 38 -35 -10 -42 -51 -47 -73
-13 -62 12 4 36 9 52 12 17 3 43 18 59 34 29 29 39 33 90 29 34 -2 106 28 106
45 0 21 45 38 69 26 25 -14 95 1 123 26 42 37 350 55 491 28 73 -14 207 -54
252 -75 39 -18 138 -60 142 -60 9 0 -22 25 -62 51 -46 29 -204 98 -296 129
-52 17 -84 21 -174 18 -61 -1 -115 0 -120 2 -6 3 -35 4 -65 2z m-120 -32 c0
-5 -7 -10 -16 -10 -8 0 -12 5 -9 10 3 6 10 10 16 10 5 0 9 -4 9 -10z"/>
<path d="M365 11545 c-54 -13 -110 -39 -120 -55 -11 -17 14 -11 60 14 23 14
64 28 89 31 25 4 43 11 40 16 -6 10 -4 11 -69 -6z"/>
<path d="M503 11543 c9 -2 23 -2 30 0 6 3 -1 5 -18 5 -16 0 -22 -2 -12 -5z"/>
<path d="M239 11416 c-3 -3 -20 -8 -39 -11 -38 -6 -131 -59 -157 -88 -12 -12
-13 -21 -6 -28 8 -8 14 -5 22 10 27 50 187 115 266 108 28 -3 59 -2 70 3 13 6
-9 9 -66 9 -47 1 -88 -1 -90 -3z"/>
<path d="M6303 11351 c-45 -4 -86 -10 -90 -15 -4 -4 17 -80 47 -169 l56 -162
54 -7 c30 -3 173 -12 318 -18 238 -11 264 -11 287 4 25 17 33 50 15 61 -15 9
-11 83 8 145 16 51 21 56 60 69 29 9 47 22 58 42 14 28 14 30 -13 40 -15 5
-88 11 -162 12 -122 2 -136 0 -139 -15 -2 -10 6 -30 17 -44 17 -22 19 -30 9
-41 -7 -8 -13 -24 -15 -36 -5 -29 -20 -44 -58 -57 -19 -6 -37 -19 -40 -30 -3
-10 -20 -25 -38 -33 -30 -15 -34 -15 -74 9 -23 13 -57 24 -75 24 -43 0 -58 15
-58 56 0 18 -4 35 -9 38 -5 3 -12 17 -15 32 -5 19 0 33 19 55 42 51 29 54
-162 40z"/>
<path d="M5870 11305 c-96 -14 -201 -27 -232 -31 -38 -4 -58 -11 -58 -20 0
-16 85 -82 116 -90 12 -3 47 -1 77 5 111 24 145 -22 111 -146 -6 -22 -3 -23
43 -23 61 0 75 13 138 134 40 77 46 95 43 140 -3 49 -4 51 -33 53 -16 1 -109
-9 -205 -22z"/>
<path d="M3326 11264 c-36 -36 -45 -54 -26 -54 13 0 90 70 90 81 0 20 -30 7
-64 -27z"/>
<path d="M4900 11261 c-193 -42 -567 -168 -610 -206 -14 -12 -136 -57 -205
-75 -118 -32 -150 -44 -211 -82 -38 -23 -88 -57 -112 -75 -56 -42 -167 -96
-215 -102 -43 -7 -49 -23 -11 -33 15 -4 34 -14 44 -23 11 -10 30 -15 47 -13
23 2 28 8 27 28 -1 27 21 49 49 50 9 0 27 6 38 13 17 10 23 10 26 0 13 -36
119 11 110 48 -4 14 0 19 13 19 11 0 22 5 25 10 3 6 35 10 70 10 63 0 97 16
56 27 -34 9 -24 23 17 23 20 0 59 11 86 25 27 14 63 25 80 26 36 1 83 17 54
18 -28 1 -21 21 7 21 14 0 33 4 43 9 52 28 102 46 140 51 47 6 57 21 20 32
-18 5 -15 6 15 7 20 1 45 5 55 10 9 5 49 21 87 36 71 27 94 37 177 74 45 20
194 51 245 51 18 0 24 5 21 18 -5 24 -81 26 -188 3z"/>
<path d="M3523 11247 c-18 -6 -33 -17 -33 -24 0 -20 54 -16 73 5 31 34 20 38
-40 19z"/>
<path d="M398 11233 c7 -3 16 -2 19 1 4 3 -2 6 -13 5 -11 0 -14 -3 -6 -6z"/>
<path d="M443 11233 c9 -2 25 -2 35 0 9 3 1 5 -18 5 -19 0 -27 -2 -17 -5z"/>
<path d="M260 11220 c-7 -4 3 -9 24 -12 20 -2 36 -1 36 3 0 10 -47 17 -60 9z"/>
<path d="M5330 11223 c-8 -2 -21 -6 -28 -9 -10 -3 -2 -19 25 -52 22 -26 55
-69 74 -97 19 -27 39 -53 44 -58 6 -4 55 -6 109 -5 110 3 130 16 76 45 -53 29
-141 89 -203 137 -58 45 -68 49 -97 39z"/>
<path d="M144 11181 c-74 -35 -144 -95 -144 -125 1 -20 2 -19 21 6 26 35 112
98 133 98 9 0 16 5 16 10 0 6 14 10 30 10 20 0 30 5 30 15 0 21 -16 18 -86
-14z"/>
<path d="M3270 11090 c-14 -10 -21 -22 -17 -26 4 -4 20 4 35 19 31 31 19 36
-18 7z"/>
<path d="M3082 11028 c2 -13 9 -23 17 -23 7 0 20 10 29 23 14 21 13 22 -17 22
-28 0 -32 -3 -29 -22z"/>
<path d="M665 11012 c-36 -22 -105 -97 -105 -114 0 -7 27 16 61 51 34 34 71
66 83 71 12 5 15 9 6 9 -8 1 -28 -7 -45 -17z"/>
<path d="M5479 10963 c-1 -4 -2 -17 -3 -28 -1 -22 -4 -23 -59 -11 -53 12 -70
-6 -57 -56 13 -47 28 -57 89 -65 38 -4 57 -2 75 11 34 22 51 20 80 -9 18 -18
37 -25 66 -26 22 -1 46 -2 53 -3 21 -2 19 41 -3 106 -12 35 -26 67 -30 71 -10
11 -210 20 -211 10z"/>
<path d="M5198 10933 c-28 -31 -68 -88 -68 -97 0 -3 8 -6 18 -6 20 1 92 88 92
112 0 25 -12 22 -42 -9z"/>
<path d="M5900 10950 c0 -5 7 -10 16 -10 8 0 12 5 9 10 -3 6 -10 10 -16 10 -5
0 -9 -4 -9 -10z"/>
<path d="M2957 10943 c-11 -10 -8 -53 3 -53 15 0 50 33 50 47 0 13 -42 18 -53
6z"/>
<path d="M6297 10935 c-4 -9 -7 -55 -7 -102 0 -129 16 -148 143 -173 63 -13
68 -13 82 6 15 19 15 46 -1 147 -8 48 8 49 70 1 57 -45 64 -69 37 -125 -29
-59 -27 -67 22 -79 23 -6 84 -25 134 -41 51 -17 98 -27 104 -23 27 16 48 90
50 175 1 48 -1 91 -4 96 -4 6 -33 23 -64 38 -32 14 -68 37 -80 49 -19 21 -33
24 -170 30 -81 3 -184 9 -229 12 -70 6 -82 4 -87 -11z"/>
<path d="M728 10833 c7 -3 16 -2 19 1 4 3 -2 6 -13 5 -11 0 -14 -3 -6 -6z"/>
<path d="M7600 10803 c-12 -15 -48 -68 -80 -118 -32 -49 -96 -135 -142 -190
-128 -152 -123 -141 -82 -177 44 -39 37 -47 -15 -17 -40 22 -41 22 -62 3 -35
-31 -169 -25 -286 14 -87 29 -95 30 -127 17 -20 -8 -42 -15 -51 -15 -26 0 -17
53 19 110 19 30 32 58 28 61 -7 6 -209 61 -337 92 -33 8 -61 10 -63 6 -2 -5
10 -32 26 -61 17 -29 38 -76 47 -105 l17 -52 121 -37 c167 -52 727 -241 734
-248 26 -25 -68 0 -372 99 -22 7 -139 43 -259 80 -176 54 -223 65 -238 56 -10
-6 -44 -11 -75 -12 -32 -1 -69 -4 -83 -8 -37 -10 -37 -38 -1 -59 17 -9 31 -20
31 -24 0 -5 7 -8 15 -8 8 0 12 -6 10 -12 -3 -8 15 -26 42 -42 78 -50 233 -167
233 -177 0 -5 -6 -9 -14 -9 -17 0 -56 -51 -56 -74 0 -8 11 -32 25 -52 14 -20
25 -49 25 -65 0 -40 -17 -79 -35 -79 -24 0 -87 -35 -112 -62 l-23 -24 27 -50
c36 -68 28 -99 -33 -126 -32 -14 -44 -24 -40 -35 15 -39 16 -95 2 -167 -21
-108 -43 -149 -83 -157 -38 -7 -103 -41 -149 -76 -28 -20 -34 -32 -34 -61 0
-31 -9 -44 -57 -92 -32 -30 -76 -63 -98 -74 -22 -10 -55 -26 -74 -35 -46 -21
-63 -51 -65 -113 -2 -47 -7 -58 -43 -96 -78 -84 -153 -263 -173 -413 -6 -46
-15 -113 -20 -149 -8 -57 -7 -67 8 -83 17 -17 20 -16 63 6 37 20 48 32 68 83
21 51 24 77 25 194 2 119 4 140 24 178 29 54 127 153 212 214 124 88 396 233
524 279 47 17 92 59 111 105 8 19 18 34 23 34 16 0 197 -157 244 -212 26 -31
56 -58 68 -61 53 -14 81 84 59 207 -8 50 -8 78 0 111 20 78 25 190 11 257 -18
96 -53 159 -122 223 l-62 57 -29 112 c-37 142 -48 315 -23 364 36 69 116 70
161 0 26 -38 136 -126 207 -163 l55 -28 34 26 c27 20 35 34 36 60 1 19 13 53
28 75 15 23 24 46 20 51 -3 6 2 11 11 11 10 0 31 12 46 27 l28 27 29 -28 c37
-35 65 -31 120 20 34 30 41 45 56 112 21 95 47 150 86 188 42 41 99 40 158 -1
84 -58 90 -61 108 -49 49 30 85 130 98 270 l7 72 -63 20 c-78 26 -196 55 -309
77 -47 9 -92 18 -101 21 -10 3 -26 -6 -39 -23z"/>
<path d="M675 10810 c-3 -6 1 -7 9 -4 18 7 21 14 7 14 -6 0 -13 -4 -16 -10z"/>
<path d="M640 10802 c0 -4 -13 -13 -29 -20 -39 -17 -112 -91 -138 -140 -31
-59 -11 -62 25 -3 34 54 69 90 125 128 36 25 48 43 27 43 -5 0 -10 -3 -10 -8z"/>
<path d="M5044 10772 c-49 -20 -74 -40 -74 -57 0 -7 -16 -20 -35 -29 -20 -10
-33 -21 -30 -27 8 -13 49 -11 62 2 8 8 21 8 47 -1 20 -6 45 -9 54 -5 15 6 14
8 -8 21 l-25 14 23 6 c13 4 22 14 22 26 0 10 7 30 16 43 20 30 8 32 -52 7z"/>
<path d="M5435 10740 c4 -6 11 -8 16 -5 14 9 11 15 -7 15 -8 0 -12 -5 -9 -10z"/>
<path d="M5620 10667 l0 -65 67 -16 c38 -8 71 -12 75 -8 5 5 5 36 2 70 -7 67
-1 62 -101 77 l-43 7 0 -65z"/>
<path d="M3407 10633 c-12 -11 -8 -23 8 -23 8 0 15 -4 15 -10 0 -5 13 -10 29
-10 26 0 41 14 41 41 0 10 -83 13 -93 2z"/>
<path d="M4796 10633 c-11 -12 -80 -33 -107 -33 -31 0 -95 -25 -104 -40 -4 -6
-18 -15 -32 -21 -31 -11 -23 -25 19 -32 18 -4 47 -9 63 -12 38 -8 77 17 58 36
-20 20 -16 28 22 35 19 3 38 10 41 15 3 5 23 0 46 -12 45 -23 79 -19 58 6 -12
15 -10 17 19 19 8 1 16 7 18 13 8 22 -82 45 -101 26z"/>
<path d="M3267 10613 c-12 -12 -7 -23 11 -24 13 0 11 -3 -6 -10 -28 -11 -20
-29 13 -29 30 0 75 20 75 33 0 26 -74 50 -93 30z"/>
<path d="M815 10581 c-3 -5 -1 -12 5 -16 5 -3 10 1 10 9 0 18 -6 21 -15 7z"/>
<path d="M3050 10560 c0 -10 9 -24 20 -30 15 -8 18 -8 14 3 -3 10 5 16 25 20
47 10 37 27 -14 27 -38 0 -45 -3 -45 -20z"/>
<path d="M5614 10566 c-3 -8 -4 -25 -2 -38 3 -24 41 -42 119 -54 38 -6 39 -6
39 23 0 37 -11 46 -75 62 -27 7 -56 15 -63 17 -7 2 -15 -3 -18 -10z"/>
<path d="M718 10502 c-67 -68 -115 -149 -104 -178 7 -20 26 -9 26 16 0 32 41
97 101 159 80 83 60 85 -23 3z"/>
<path d="M2894 10555 c-10 -26 4 -45 34 -45 36 0 63 27 41 40 -8 6 -18 5 -23
0 -15 -15 -29 -12 -22 5 3 9 0 15 -10 15 -8 0 -17 -7 -20 -15z"/>
<path d="M2744 10525 c-9 -22 4 -35 35 -35 28 0 67 31 54 43 -13 14 -84 7 -89
-8z"/>
<path d="M4410 10491 c-8 -5 -49 -20 -90 -34 -41 -14 -93 -32 -115 -40 -22 -9
-80 -28 -129 -43 l-90 -27 40 -33 c46 -40 72 -50 87 -35 9 9 6 13 -11 17 -40
11 -23 21 48 28 39 4 76 14 84 22 8 8 19 13 23 12 4 -1 32 10 62 25 36 18 71
27 102 27 46 0 70 12 49 25 -18 11 -10 22 21 29 18 3 29 11 27 18 -5 15 -86
22 -108 9z"/>
<path d="M5166 10482 c-8 -14 -4 -16 89 -42 43 -12 85 -24 92 -27 7 -3 13 0
13 6 0 33 -176 91 -194 63z"/>
<path d="M4932 10440 c-76 -21 -94 -35 -61 -45 13 -4 92 -41 174 -82 83 -42
197 -96 255 -120 58 -25 180 -83 272 -130 92 -47 172 -83 177 -81 20 7 -51
128 -123 210 -76 87 -107 108 -226 150 -205 73 -347 118 -374 117 -17 0 -59
-9 -94 -19z"/>
<path d="M5632 10438 c5 -16 114 -55 124 -45 12 12 -13 30 -59 44 -53 16 -70
16 -65 1z"/>
<path d="M5650 10341 c0 -25 45 -61 76 -61 19 0 24 5 24 26 0 19 -8 28 -35 40
-47 19 -65 18 -65 -5z"/>
<path d="M3860 10315 c-30 -8 -94 -14 -142 -15 -48 0 -89 -4 -92 -9 -10 -15 5
-41 23 -41 9 0 24 -9 34 -20 9 -11 26 -20 36 -20 25 0 40 22 20 29 -15 5 81
30 119 31 13 0 30 -7 38 -15 19 -19 35 -19 60 0 17 13 17 14 2 15 -10 0 -18 3
-18 6 0 4 8 13 18 20 15 12 15 15 2 24 -19 12 -32 12 -100 -5z"/>
<path d="M3195 10250 c-3 -5 5 -16 19 -25 19 -13 29 -14 45 -5 36 19 26 40
-18 40 -22 0 -42 -4 -46 -10z"/>
<path d="M3381 10251 c-11 -7 -9 -13 9 -31 12 -12 28 -19 37 -16 8 3 19 6 24
6 16 0 10 38 -7 44 -22 8 -47 7 -63 -3z"/>
<path d="M3514 10245 c-9 -23 5 -35 40 -35 40 0 48 7 35 31 -12 23 -67 26 -75
4z"/>
<path d="M4363 10110 c-29 -27 -53 -53 -53 -57 0 -5 8 -16 18 -24 25 -23 67
-72 88 -104 18 -27 18 -28 -1 -17 -11 6 -45 36 -75 66 -30 31 -58 56 -62 56
-4 0 3 -21 16 -47 21 -42 42 -102 77 -219 5 -17 9 -37 9 -46 0 -13 16 -14 103
-11 240 9 441 23 450 32 5 5 0 15 -13 24 -11 8 -42 34 -68 58 -45 43 -145 129
-187 162 -11 9 -45 35 -75 59 -30 24 -71 55 -90 68 -19 13 -41 30 -48 37 -21
21 -34 15 -89 -37z"/>
<path d="M3692 10059 c3 -8 30 -18 64 -24 65 -11 62 -7 80 -130 3 -22 9 -49
14 -60 5 -11 11 -42 14 -70 15 -155 19 -181 27 -189 5 -6 9 0 9 16 0 22 6 27
46 37 70 18 244 27 244 13 0 -7 -22 -44 -49 -84 -91 -137 -143 -262 -156 -381
-9 -78 1 -119 27 -115 18 3 21 12 23 80 5 113 38 207 120 343 61 101 139 195
162 195 22 0 19 21 -30 165 -11 33 -30 83 -43 111 l-23 51 -73 6 c-40 4 -103
9 -140 13 l-68 7 0 -36 c0 -20 -5 -49 -11 -64 -21 -51 -27 -68 -33 -86 -9 -28
-29 -8 -22 22 24 98 33 166 22 173 -6 4 -38 8 -71 8 -33 0 -77 3 -99 7 -30 5
-38 3 -34 -8z"/>
<path d="M2900 9830 c0 -5 5 -10 11 -10 5 0 7 5 4 10 -3 6 -8 10 -11 10 -2 0
-4 -4 -4 -10z"/>
<path d="M2835 9810 c-3 -5 -1 -10 4 -10 6 0 11 5 11 10 0 6 -2 10 -4 10 -3 0
-8 -4 -11 -10z"/>
<path d="M2975 9790 l-30 -8 33 -1 c17 0 32 4 32 9 0 6 -1 9 -2 9 -2 -1 -16
-5 -33 -9z"/>
<path d="M2316 9744 c-3 -9 -2 -23 4 -32 7 -14 9 -10 10 16 0 35 -5 41 -14 16z"/>
<path d="M2337 9683 c-4 -6 -3 -21 1 -34 6 -16 10 -18 14 -8 7 19 -6 56 -15
42z"/>
<path d="M3900 9420 c0 -98 4 -149 10 -145 6 4 10 63 10 145 0 82 -4 141 -10
145 -6 4 -10 -47 -10 -145z"/>
<path d="M2715 9407 c-58 -34 -182 -113 -198 -126 -23 -19 -49 -80 -43 -97 4
-10 15 -8 45 7 44 21 71 24 71 9 0 -5 14 -10 32 -10 l31 0 -41 -30 c-32 -23
-42 -37 -42 -58 0 -15 -11 -53 -24 -85 -13 -31 -20 -59 -16 -62 5 -3 29 4 55
15 65 28 77 26 99 -20 19 -40 20 -40 40 -22 12 10 42 31 68 45 26 15 50 32 53
37 3 6 3 42 -1 80 -5 50 -11 70 -21 70 -8 0 -47 -22 -88 -50 -80 -54 -99 -62
-70 -30 10 11 19 30 21 43 3 29 26 91 42 109 15 19 54 167 46 179 -7 12 -34
10 -59 -4z"/>
<path d="M2663 8805 c0 -22 2 -30 4 -17 2 12 2 30 0 40 -3 9 -5 -1 -4 -23z"/>
<path d="M4216 8767 c-27 -35 -33 -62 -16 -72 6 -4 10 6 10 22 1 60 63 86 85
36 9 -22 25 -31 25 -15 0 13 -51 62 -65 62 -8 0 -25 -15 -39 -33z"/>
<path d="M2678 8748 c-8 -18 18 -78 33 -78 5 0 9 -8 10 -17 0 -10 3 -13 5 -6
3 6 -3 27 -13 45 -10 18 -20 42 -23 53 -5 18 -7 18 -12 3z"/>
<path d="M4320 8706 c0 -9 5 -16 10 -16 6 0 10 4 10 9 0 6 -4 13 -10 16 -5 3
-10 -1 -10 -9z"/>
<path d="M2741 8614 c0 -11 3 -14 6 -6 3 7 2 16 -1 19 -3 4 -6 -2 -5 -13z"/>
<path d="M2761 8584 c0 -11 3 -14 6 -6 3 7 2 16 -1 19 -3 4 -6 -2 -5 -13z"/>
<path d="M3253 8403 c9 -2 23 -2 30 0 6 3 -1 5 -18 5 -16 0 -22 -2 -12 -5z"/>
<path d="M3223 8350 c0 -25 2 -35 4 -22 2 12 2 32 0 45 -2 12 -4 2 -4 -23z"/>
<path d="M2512 7680 c0 -19 2 -27 5 -17 2 9 2 25 0 35 -3 9 -5 1 -5 -18z"/>
<path d="M2490 7655 c-2 -11 -2 -23 -2 -27 1 -3 -5 -12 -13 -18 -8 -7 -15 -22
-15 -34 0 -12 -6 -28 -12 -35 -11 -10 -8 -16 12 -31 l25 -19 7 52 c3 29 9 61
11 72 2 11 1 29 -4 40 l-8 20 -1 -20z"/>
<path d="M3056 7251 c-11 -13 -14 -21 -7 -26 6 -3 11 1 11 10 0 9 4 14 9 10 5
-3 12 -1 15 4 12 19 -12 20 -28 2z"/>
<path d="M3030 7215 c-8 -45 -8 -47 2 -37 5 5 8 18 5 28 -3 11 -6 15 -7 9z"/>
<path d="M3391 7104 c0 -11 3 -14 6 -6 3 7 2 16 -1 19 -3 4 -6 -2 -5 -13z"/>
<path d="M3359 7053 c-10 -21 -15 -40 -12 -43 6 -6 23 23 17 31 -2 4 1 9 7 11
6 2 10 12 8 21 -3 13 -9 7 -20 -20z"/>
<path d="M3890 7024 c0 -10 -2 -53 -4 -94 -5 -85 2 -130 15 -109 8 14 2 209
-6 218 -3 2 -5 -4 -5 -15z"/>
<path d="M3333 6988 c-15 -24 -33 -83 -33 -110 0 -15 -4 -30 -10 -33 -5 -3 -9
-23 -9 -43 2 -33 2 -34 6 -7 2 17 8 39 13 50 20 47 52 155 45 155 -2 0 -7 -6
-12 -12z"/>
<path d="M3869 6948 c-6 -21 -5 -39 2 -44 5 -3 9 6 9 20 0 21 -7 36 -11 24z"/>
</g>
</svg>
